<svg width="180" height="33" viewBox="0 0 180 33" fill="none" xmlns="http://www.w3.org/2000/svg">
<path d="M31.1774 12.139L29.7003 10.6619L27.0907 8.05724L24.3974 5.36395L21.7879 2.75436L19.1832 5.36395L21.7879 7.9686L28.5678 14.7486C28.7978 14.9774 28.9804 15.2493 29.1049 15.5489C29.2295 15.8484 29.2936 16.1696 29.2936 16.4941C29.2936 16.8185 29.2295 17.1397 29.1049 17.4392C28.9804 17.7388 28.7978 18.0107 28.5678 18.2395L27.0907 19.7166L24.4861 22.3262L27.0907 24.9309L29.7003 22.3262L31.1774 20.8491C32.3323 19.694 32.9811 18.1275 32.9811 16.4941C32.9811 14.8606 32.3323 13.2941 31.1774 12.139ZM19.1881 27.6192L18.2477 28.5597C18.0189 28.7897 17.7469 28.9722 17.4474 29.0968C17.1478 29.2213 16.8266 29.2854 16.5022 29.2854C16.1778 29.2854 15.8566 29.2213 15.557 29.0968C15.2575 28.9722 14.9855 28.7897 14.7568 28.5597L4.41691 18.2198C4.1869 17.9911 4.00438 17.7191 3.87983 17.4195C3.75529 17.12 3.69117 16.7988 3.69117 16.4744C3.69117 16.1499 3.75529 15.8287 3.87983 15.5292C4.00438 15.2297 4.1869 14.9577 4.41691 14.7289L14.7568 4.38905C14.9854 4.15969 15.2571 3.9777 15.5561 3.8535C15.8552 3.72929 16.1759 3.66532 16.4998 3.66526V0.011843C15.6914 0.0111556 14.8908 0.169979 14.1439 0.479214C13.397 0.788448 12.7185 1.24202 12.1472 1.81393L1.80732 12.1538C1.23446 12.7247 0.779932 13.403 0.46979 14.1499C0.159648 14.8968 0 15.6976 0 16.5064C0 17.3151 0.159648 18.1159 0.46979 18.8628C0.779932 19.6097 1.23446 20.2881 1.80732 20.859L12.1472 31.1988C13.3021 32.3522 14.8676 33 16.4998 33C18.132 33 19.6974 32.3522 20.8523 31.1988L21.7928 30.2584L24.4024 27.6488L21.7928 25.0441L19.1881 27.6192Z" fill="url(#paint0_linear_1004_878)"/>
<path d="M52.3446 12.139L42.0048 1.79911C40.8501 0.647238 39.2856 0.000366211 37.6546 0.000366211C36.0236 0.000366211 34.4592 0.647238 33.3045 1.79911L29.7545 5.34912L32.3641 7.95871L34.9737 5.34912L35.9092 4.40869C36.138 4.17868 36.4099 3.99617 36.7095 3.87162C37.009 3.74707 37.3302 3.68295 37.6546 3.68295C37.979 3.68295 38.3003 3.74707 38.5998 3.87162C38.8994 3.99617 39.1713 4.17868 39.4001 4.40869L49.74 14.7485C49.97 14.9773 50.1525 15.2493 50.277 15.5488C50.4016 15.8484 50.4657 16.1696 50.4657 16.494C50.4657 16.8184 50.4016 17.1396 50.277 17.4392C50.1525 17.7387 49.97 18.0107 49.74 18.2395L39.4001 28.5793C39.1715 28.8087 38.8998 28.9907 38.6007 29.1149C38.3016 29.2391 37.981 29.303 37.6571 29.3031V32.991C38.4651 32.9937 39.2655 32.8358 40.0119 32.5265C40.7582 32.2171 41.4357 31.7624 42.0048 31.1889L52.3446 20.8491C53.4995 19.6939 54.1483 18.1274 54.1483 16.494C54.1483 14.8606 53.4995 13.2941 52.3446 12.139ZM29.6954 22.3311L27.0858 19.7215L25.6087 18.2444C25.3787 18.0156 25.1962 17.7437 25.0716 17.4441C24.9471 17.1446 24.883 16.8233 24.883 16.4989C24.883 16.1745 24.9471 15.8533 25.0716 15.5538C25.1962 15.2542 25.3787 14.9822 25.6087 14.7535L27.0858 13.2763L29.6905 10.6668L27.0809 8.0621L24.4763 10.6668L22.9991 12.1439C21.8458 13.2988 21.1979 14.8643 21.1979 16.4965C21.1979 18.1287 21.8458 19.6941 22.9991 20.8491L27.0908 24.9407L29.7742 27.6241L32.3838 30.2337L34.9884 27.6241L29.6954 22.3311Z" fill="url(#paint1_linear_1004_878)"/>
<path d="M41.7634 12.139L31.4236 1.79916C30.268 0.646992 28.7028 0 27.071 0C25.4392 0 23.874 0.646992 22.7184 1.79916L21.778 2.7396L19.1733 5.34918L12.3983 12.1242C11.8254 12.6951 11.3709 13.3735 11.0607 14.1204C10.7506 14.8673 10.5909 15.6681 10.5909 16.4768C10.5909 17.2856 10.7506 18.0864 11.0607 18.8333C11.3709 19.5802 11.8254 20.2585 12.3983 20.8294L19.1733 27.6045L21.778 30.2141L22.7184 31.1545C23.8733 32.3079 25.4388 32.9557 27.071 32.9557C28.7032 32.9557 30.2687 32.3079 31.4236 31.1545L32.364 30.2141L34.9687 27.6045L41.7487 20.8294C42.8983 19.6764 43.5451 18.1155 43.5479 16.4873C43.5506 14.8591 42.9092 13.2959 41.7634 12.139ZM39.1686 18.2395L32.3936 25.0146L29.784 27.6192L28.8288 28.5597C28.6001 28.7889 28.3284 28.9708 28.0293 29.095C27.7303 29.2191 27.4096 29.2829 27.0858 29.2829C26.762 29.2829 26.4413 29.2191 26.1422 29.095C25.8431 28.9708 25.5715 28.7889 25.3428 28.5597L15.0029 18.2198C14.7729 17.9911 14.5904 17.7191 14.4659 17.4195C14.3413 17.12 14.2772 16.7988 14.2772 16.4744C14.2772 16.15 14.3413 15.8288 14.4659 15.5292C14.5904 15.2297 14.7729 14.9577 15.0029 14.7289L21.778 7.94892L24.3876 5.34426L25.328 4.40382C25.5567 4.17456 25.8284 3.99266 26.1275 3.86855C26.4266 3.74444 26.7472 3.68056 27.071 3.68056C27.3948 3.68056 27.7155 3.74444 28.0146 3.86855C28.3137 3.99266 28.5853 4.17456 28.814 4.40382L29.7545 5.34426L32.364 7.95383L39.1686 14.7486C39.3986 14.9774 39.5812 15.2493 39.7057 15.5489C39.8303 15.8484 39.8944 16.1697 39.8944 16.4941C39.8944 16.8185 39.8303 17.1397 39.7057 17.4392C39.5812 17.7388 39.3986 18.0108 39.1686 18.2395Z" fill="url(#paint2_linear_1004_878)"/>
<path d="M21.7928 2.75436L19.1881 5.36394L18.2477 4.42351C18.019 4.19415 17.7474 4.01216 17.4483 3.88796C17.1492 3.76375 16.8285 3.69978 16.5047 3.69972V0.0118408C17.3137 0.0135736 18.1144 0.175441 18.8606 0.488114C19.6068 0.800788 20.2837 1.25808 20.8523 1.83362L21.7928 2.75436Z" fill="url(#paint3_linear_1004_878)"/>
<path d="M37.6915 29.2835V32.9714C36.8829 32.9737 36.0819 32.8156 35.3348 32.5063C34.5876 32.1969 33.9093 31.7425 33.339 31.1693L32.3985 30.2289L35.0032 27.6193L35.9436 28.5597C36.1729 28.7896 36.4453 28.972 36.7453 29.0962C37.0453 29.2204 37.3669 29.2841 37.6915 29.2835Z" fill="url(#paint4_linear_1004_878)"/>
<path d="M21.7928 2.75436L19.1881 5.36394L18.2477 4.42351C18.019 4.19415 17.7474 4.01216 17.4483 3.88796C17.1492 3.76375 16.8285 3.69978 16.5047 3.69972V0.0118408C17.3137 0.0135736 18.1144 0.175441 18.8606 0.488114C19.6068 0.800788 20.2837 1.25808 20.8523 1.83362L21.7928 2.75436Z" fill="url(#paint5_linear_1004_878)"/>
<path d="M27.0908 13.2617L25.6137 14.7388C25.383 14.9665 25.2001 15.2379 25.0758 15.5372C24.9515 15.8366 24.8883 16.1577 24.8899 16.4818H21.202C21.1997 15.6732 21.3578 14.8721 21.6671 14.125C21.9764 13.3779 22.4308 12.6996 23.0041 12.1292L24.4812 10.6521L27.0908 13.2617Z" fill="url(#paint6_linear_1004_878)"/>
<path d="M27.0858 19.7216L28.5629 18.2445C28.7929 18.0153 28.9752 17.7428 29.0994 17.4428C29.2236 17.1429 29.2873 16.8213 29.2867 16.4966H32.9697C32.9725 17.3056 32.8151 18.1071 32.5066 18.855C32.1982 19.6029 31.7448 20.2823 31.1725 20.8541L29.6954 22.3312L27.0858 19.7216Z" fill="url(#paint7_linear_1004_878)"/>
<path d="M37.6915 29.2835V32.9714C36.8829 32.9737 36.0819 32.8156 35.3348 32.5063C34.5876 32.1969 33.9093 31.7425 33.339 31.1693L32.3985 30.2289L35.0032 27.6193L35.9436 28.5597C36.1729 28.7896 36.4453 28.972 36.7453 29.0962C37.0453 29.2204 37.3669 29.2841 37.6915 29.2835Z" fill="url(#paint8_linear_1004_878)"/>
<path d="M73.0995 23.0071C71.9325 23.0071 70.8977 22.8612 69.9952 22.5694C69.1083 22.2623 68.3614 21.817 67.7545 21.2334C67.1477 20.6499 66.6886 19.9205 66.3774 19.0452C66.0818 18.1546 65.934 17.1257 65.934 15.9587V8.12712C65.934 7.52823 66.0896 7.07523 66.4008 6.76811C66.712 6.46099 67.1632 6.30743 67.7545 6.30743C68.3303 6.30743 68.7737 6.46099 69.0849 6.76811C69.3962 7.07523 69.5518 7.52823 69.5518 8.12712V15.9817C69.5518 17.3023 69.8552 18.3005 70.462 18.9761C71.0689 19.6364 71.9481 19.9666 73.0995 19.9666C74.251 19.9666 75.1224 19.6364 75.7137 18.9761C76.3205 18.3005 76.624 17.3023 76.624 15.9817V8.12712C76.624 7.52823 76.7796 7.07523 77.0908 6.76811C77.402 6.46099 77.8455 6.30743 78.4212 6.30743C78.9969 6.30743 79.4326 6.46099 79.7283 6.76811C80.0395 7.07523 80.1951 7.52823 80.1951 8.12712V15.9587C80.1951 17.5096 79.9228 18.8149 79.3782 19.8744C78.8491 20.9186 78.0555 21.7018 76.9974 22.2239C75.9549 22.746 74.6556 23.0071 73.0995 23.0071Z" fill="white"/>
<path d="M84.8671 22.961C84.2913 22.961 83.8478 22.8074 83.5366 22.5003C83.241 22.1932 83.0932 21.7555 83.0932 21.1874V13.0103C83.0932 12.4421 83.241 12.0122 83.5366 11.7204C83.8478 11.4133 84.2758 11.2597 84.8204 11.2597C85.3805 11.2597 85.8085 11.4133 86.1041 11.7204C86.3998 12.0122 86.5476 12.4421 86.5476 13.0103V14.3233L86.2908 13.5631C86.6487 12.8107 87.1778 12.2348 87.878 11.8356C88.5938 11.421 89.4029 11.2137 90.3054 11.2137C91.2235 11.2137 91.9782 11.3903 92.5695 11.7435C93.1608 12.0813 93.6042 12.6034 93.8999 13.3098C94.1955 14.0008 94.3434 14.8837 94.3434 15.9587V21.1874C94.3434 21.7555 94.1877 22.1932 93.8765 22.5003C93.5809 22.8074 93.1452 22.961 92.5695 22.961C92.0093 22.961 91.5736 22.8074 91.2624 22.5003C90.9667 22.1932 90.8189 21.7555 90.8189 21.1874V16.1199C90.8189 15.3368 90.6711 14.7763 90.3754 14.4384C90.0954 14.0852 89.6597 13.9086 89.0684 13.9086C88.3215 13.9086 87.7224 14.139 87.2711 14.5997C86.8354 15.0603 86.6176 15.6746 86.6176 16.4424V21.1874C86.6176 22.3698 86.0341 22.961 84.8671 22.961Z" fill="white"/>
<path d="M98.795 22.961C98.2193 22.961 97.7758 22.8074 97.4646 22.5003C97.169 22.1932 97.0211 21.7555 97.0211 21.1874V13.0103C97.0211 12.4421 97.169 12.0122 97.4646 11.7204C97.7758 11.4133 98.2037 11.2597 98.7484 11.2597C99.3085 11.2597 99.7364 11.4133 100.032 11.7204C100.328 12.0122 100.476 12.4421 100.476 13.0103V14.4845L100.219 13.5631C100.53 12.8568 101.012 12.2886 101.666 11.8586C102.319 11.4287 103.09 11.2137 103.977 11.2137C104.864 11.2137 105.603 11.421 106.194 11.8356C106.785 12.2502 107.205 12.8875 107.454 13.7474H107.128C107.47 12.9643 107.991 12.35 108.691 11.9047C109.407 11.444 110.224 11.2137 111.142 11.2137C112.029 11.2137 112.753 11.3903 113.313 11.7435C113.889 12.0813 114.317 12.6034 114.597 13.3098C114.877 14.0008 115.017 14.8837 115.017 15.9587V21.1874C115.017 21.7555 114.861 22.1932 114.55 22.5003C114.254 22.8074 113.826 22.961 113.266 22.961C112.69 22.961 112.247 22.8074 111.936 22.5003C111.64 22.1932 111.492 21.7555 111.492 21.1874V16.0738C111.492 15.3214 111.368 14.7763 111.119 14.4384C110.885 14.0852 110.481 13.9086 109.905 13.9086C109.236 13.9086 108.715 14.139 108.341 14.5997C107.968 15.0603 107.781 15.713 107.781 16.5576V21.1874C107.781 21.7555 107.626 22.1932 107.314 22.5003C107.019 22.8074 106.591 22.961 106.031 22.961C105.47 22.961 105.035 22.8074 104.724 22.5003C104.412 22.1932 104.257 21.7555 104.257 21.1874V16.0738C104.257 15.3214 104.132 14.7763 103.883 14.4384C103.65 14.0852 103.245 13.9086 102.67 13.9086C102 13.9086 101.479 14.139 101.106 14.5997C100.732 15.0603 100.546 15.713 100.546 16.5576V21.1874C100.546 22.3698 99.9621 22.961 98.795 22.961Z" fill="white"/>
<path d="M123.668 23.0071C122.315 23.0071 121.148 22.769 120.167 22.293C119.203 21.8016 118.456 21.1183 117.927 20.243C117.413 19.3523 117.156 18.3081 117.156 17.1104C117.156 15.9433 117.405 14.9221 117.903 14.0468C118.401 13.1562 119.094 12.4652 119.981 11.9738C120.883 11.467 121.902 11.2137 123.038 11.2137C123.863 11.2137 124.61 11.3519 125.279 11.6283C125.948 11.8893 126.524 12.2732 127.006 12.78C127.489 13.2714 127.854 13.8779 128.103 14.5997C128.352 15.306 128.477 16.0969 128.477 16.9722C128.477 17.2639 128.383 17.4866 128.197 17.6401C128.01 17.7784 127.738 17.8475 127.38 17.8475H120.051V16.0508H125.933L125.559 16.3733C125.559 15.7437 125.466 15.2216 125.279 14.807C125.092 14.377 124.82 14.0545 124.462 13.8395C124.12 13.6246 123.692 13.5171 123.178 13.5171C122.603 13.5171 122.112 13.6476 121.708 13.9086C121.303 14.1697 120.992 14.5459 120.774 15.0373C120.556 15.5287 120.447 16.1199 120.447 16.8109V16.9952C120.447 18.1623 120.72 19.0222 121.264 19.575C121.825 20.1278 122.649 20.4042 123.739 20.4042C124.112 20.4042 124.54 20.3582 125.022 20.266C125.505 20.1739 125.956 20.028 126.376 19.8284C126.734 19.6595 127.053 19.6057 127.333 19.6671C127.613 19.7132 127.831 19.8361 127.987 20.0357C128.142 20.2353 128.228 20.4656 128.243 20.7267C128.274 20.9878 128.22 21.2488 128.08 21.5099C127.94 21.7556 127.706 21.9629 127.38 22.1318C126.851 22.4235 126.252 22.6385 125.582 22.7767C124.929 22.9303 124.291 23.0071 123.668 23.0071Z" fill="white"/>
<path d="M134.915 23.0071C134.23 23.0071 133.522 22.9456 132.791 22.8228C132.075 22.6999 131.421 22.4926 130.83 22.2009C130.519 22.0473 130.293 21.8554 130.153 21.625C130.029 21.3793 129.974 21.1336 129.99 20.8879C130.005 20.6422 130.083 20.4196 130.223 20.22C130.379 20.0203 130.573 19.8898 130.807 19.8284C131.056 19.7516 131.328 19.7746 131.624 19.8975C132.262 20.1585 132.845 20.3428 133.374 20.4503C133.903 20.5578 134.425 20.6115 134.938 20.6115C135.607 20.6115 136.089 20.5117 136.385 20.3121C136.696 20.0971 136.852 19.8207 136.852 19.4829C136.852 19.1757 136.751 18.9454 136.549 18.7918C136.346 18.6383 136.051 18.5308 135.662 18.4694L133.211 18.0317C132.246 17.8628 131.499 17.5173 130.97 16.9952C130.457 16.4577 130.2 15.7744 130.2 14.9452C130.2 14.1774 130.418 13.5171 130.853 12.9643C131.289 12.3961 131.888 11.9661 132.651 11.6743C133.429 11.3672 134.308 11.2137 135.288 11.2137C135.988 11.2137 136.634 11.2751 137.225 11.3979C137.817 11.5208 138.385 11.7204 138.929 11.9968C139.209 12.135 139.404 12.3193 139.513 12.5496C139.637 12.78 139.676 13.018 139.629 13.2637C139.598 13.5094 139.505 13.7321 139.349 13.9317C139.194 14.1313 138.992 14.2618 138.743 14.3233C138.509 14.3847 138.237 14.354 137.926 14.2311C137.428 14.0008 136.969 13.8395 136.549 13.7474C136.128 13.6399 135.724 13.5862 135.335 13.5862C134.635 13.5862 134.129 13.7013 133.818 13.9317C133.506 14.1467 133.351 14.4231 133.351 14.7609C133.351 15.022 133.436 15.2446 133.608 15.4289C133.794 15.5978 134.074 15.713 134.448 15.7744L136.899 16.212C137.91 16.381 138.68 16.7188 139.209 17.2255C139.738 17.7169 140.003 18.3926 140.003 19.2525C140.003 20.4196 139.536 21.3409 138.603 22.0166C137.684 22.6769 136.455 23.0071 134.915 23.0071Z" fill="white"/>
<path d="M146.403 23.0071C145.718 23.0071 145.01 22.9456 144.279 22.8228C143.563 22.6999 142.909 22.4926 142.318 22.2009C142.007 22.0473 141.781 21.8554 141.641 21.625C141.517 21.3793 141.462 21.1336 141.478 20.8879C141.493 20.6422 141.571 20.4196 141.711 20.22C141.867 20.0203 142.061 19.8898 142.295 19.8284C142.544 19.7516 142.816 19.7746 143.112 19.8975C143.75 20.1585 144.333 20.3428 144.862 20.4503C145.391 20.5578 145.912 20.6115 146.426 20.6115C147.095 20.6115 147.577 20.5117 147.873 20.3121C148.184 20.0971 148.34 19.8207 148.34 19.4829C148.34 19.1757 148.239 18.9454 148.036 18.7918C147.834 18.6383 147.539 18.5308 147.15 18.4694L144.699 18.0317C143.734 17.8628 142.987 17.5173 142.458 16.9952C141.945 16.4577 141.688 15.7744 141.688 14.9452C141.688 14.1774 141.906 13.5171 142.341 12.9643C142.777 12.3961 143.376 11.9661 144.139 11.6743C144.917 11.3672 145.796 11.2137 146.776 11.2137C147.476 11.2137 148.122 11.2751 148.713 11.3979C149.305 11.5208 149.873 11.7204 150.417 11.9968C150.697 12.135 150.892 12.3193 151.001 12.5496C151.125 12.78 151.164 13.018 151.117 13.2637C151.086 13.5094 150.993 13.7321 150.837 13.9317C150.682 14.1313 150.479 14.2618 150.231 14.3233C149.997 14.3847 149.725 14.354 149.414 14.2311C148.916 14.0008 148.457 13.8395 148.036 13.7474C147.616 13.6399 147.212 13.5862 146.823 13.5862C146.123 13.5862 145.617 13.7013 145.306 13.9317C144.994 14.1467 144.839 14.4231 144.839 14.7609C144.839 15.022 144.924 15.2446 145.096 15.4289C145.282 15.5978 145.562 15.713 145.936 15.7744L148.387 16.212C149.398 16.381 150.168 16.7188 150.697 17.2255C151.226 17.7169 151.491 18.3926 151.491 19.2525C151.491 20.4196 151.024 21.3409 150.09 22.0166C149.172 22.6769 147.943 23.0071 146.403 23.0071Z" fill="white"/>
<path d="M155.276 22.938C154.701 22.938 154.257 22.7767 153.946 22.4542C153.65 22.1164 153.503 21.6481 153.503 21.0492V13.1716C153.503 12.5573 153.65 12.089 153.946 11.7665C154.257 11.4287 154.701 11.2597 155.276 11.2597C155.837 11.2597 156.265 11.4287 156.56 11.7665C156.871 12.089 157.027 12.5573 157.027 13.1716V21.0492C157.027 21.6481 156.879 22.1164 156.584 22.4542C156.288 22.7767 155.852 22.938 155.276 22.938ZM155.276 9.37095C154.623 9.37095 154.117 9.22507 153.759 8.93331C153.417 8.62619 153.246 8.19622 153.246 7.6434C153.246 7.07523 153.417 6.64527 153.759 6.3535C154.117 6.04638 154.623 5.89282 155.276 5.89282C155.93 5.89282 156.428 6.04638 156.77 6.3535C157.113 6.64527 157.284 7.07523 157.284 7.6434C157.284 8.19622 157.113 8.62619 156.77 8.93331C156.428 9.22507 155.93 9.37095 155.276 9.37095Z" fill="white"/>
<path d="M162.409 22.961C161.833 22.961 161.39 22.8074 161.078 22.5003C160.783 22.1932 160.635 21.7555 160.635 21.1874V14.0468H159.795C159.359 14.0468 159.017 13.9317 158.768 13.7013C158.534 13.471 158.418 13.1562 158.418 12.7569C158.418 12.327 158.534 12.0045 158.768 11.7895C159.017 11.5592 159.359 11.444 159.795 11.444H161.662L160.635 12.3654V11.6513C160.635 10.0082 161.047 8.77975 161.872 7.96588C162.712 7.15201 163.942 6.66062 165.56 6.49171L166.307 6.4226C166.711 6.39189 167.03 6.45332 167.264 6.60688C167.513 6.76044 167.676 6.96006 167.754 7.20576C167.832 7.45146 167.847 7.70483 167.801 7.96588C167.754 8.21158 167.645 8.43424 167.474 8.63387C167.318 8.81814 167.1 8.91795 166.82 8.93331L166.493 8.95634C165.653 9.01777 165.054 9.21739 164.696 9.55522C164.338 9.8777 164.159 10.3768 164.159 11.0524V11.8356L163.716 11.444H165.817C166.268 11.444 166.61 11.5592 166.844 11.7895C167.077 12.0045 167.194 12.327 167.194 12.7569C167.194 13.1562 167.077 13.471 166.844 13.7013C166.61 13.9317 166.268 14.0468 165.817 14.0468H164.159V21.1874C164.159 22.3698 163.576 22.961 162.409 22.961Z" fill="white"/>
<path d="M171.514 27.1071C171.11 27.1071 170.775 26.9996 170.511 26.7846C170.246 26.5696 170.091 26.2856 170.044 25.9324C169.997 25.5945 170.06 25.2337 170.231 24.8498L171.795 21.4408V22.8689L167.663 13.5171C167.508 13.1178 167.453 12.7493 167.5 12.4114C167.562 12.0582 167.733 11.7818 168.013 11.5822C168.309 11.3672 168.714 11.2597 169.227 11.2597C169.647 11.2597 169.982 11.3596 170.231 11.5592C170.495 11.7435 170.736 12.1043 170.954 12.6418L173.708 19.552H172.962L175.809 12.6187C176.027 12.0966 176.268 11.7435 176.533 11.5592C176.813 11.3596 177.186 11.2597 177.653 11.2597C178.058 11.2597 178.377 11.3672 178.61 11.5822C178.859 11.7818 179.007 12.0506 179.053 12.3884C179.116 12.7262 179.053 13.0948 178.867 13.494L173.382 25.7711C173.148 26.2932 172.884 26.6464 172.588 26.8307C172.308 27.015 171.95 27.1071 171.514 27.1071Z" fill="white"/>
<defs>
<linearGradient id="paint0_linear_1004_878" x1="16.4998" y1="0.115242" x2="16.4998" y2="31.6961" gradientUnits="userSpaceOnUse">
<stop stop-color="#00D2FF"/>
<stop offset="1" stop-color="#4F7EF7"/>
</linearGradient>
<linearGradient id="paint1_linear_1004_878" x1="37.6719" y1="0.115189" x2="37.6719" y2="31.696" gradientUnits="userSpaceOnUse">
<stop stop-color="#00D2FF"/>
<stop offset="1" stop-color="#4F7EF7"/>
</linearGradient>
<linearGradient id="paint2_linear_1004_878" x1="27.0858" y1="0.115248" x2="27.0858" y2="31.6961" gradientUnits="userSpaceOnUse">
<stop stop-color="#00D2FF"/>
<stop offset="1" stop-color="#4F7EF7"/>
</linearGradient>
<linearGradient id="paint3_linear_1004_878" x1="19.1487" y1="0.115239" x2="19.1487" y2="31.6961" gradientUnits="userSpaceOnUse">
<stop stop-color="#00D2FF"/>
<stop offset="1" stop-color="#4F7EF7"/>
</linearGradient>
<linearGradient id="paint4_linear_1004_878" x1="35.0278" y1="0.11527" x2="35.0278" y2="31.6961" gradientUnits="userSpaceOnUse">
<stop stop-color="#00D2FF"/>
<stop offset="1" stop-color="#4F7EF7"/>
</linearGradient>
<linearGradient id="paint5_linear_1004_878" x1="21.9208" y1="3.86713" x2="16.9183" y2="2.21768" gradientUnits="userSpaceOnUse">
<stop stop-color="#4F7EF7" stop-opacity="0.7"/>
<stop offset="1" stop-color="#4F7EF7" stop-opacity="0"/>
</linearGradient>
<linearGradient id="paint6_linear_1004_878" x1="27.3567" y1="10.3222" x2="24.171" y2="14.0347" gradientUnits="userSpaceOnUse">
<stop stop-color="#4F7EF7"/>
<stop offset="1" stop-color="#4F7EF7" stop-opacity="0"/>
</linearGradient>
<linearGradient id="paint7_linear_1004_878" x1="26.815" y1="22.6611" x2="30.0056" y2="18.9535" gradientUnits="userSpaceOnUse">
<stop stop-color="#4F7EF7"/>
<stop offset="1" stop-color="#4F7EF7" stop-opacity="0"/>
</linearGradient>
<linearGradient id="paint8_linear_1004_878" x1="32.7826" y1="30.0959" x2="37.2927" y2="30.3569" gradientUnits="userSpaceOnUse">
<stop stop-color="#2456C6"/>
<stop offset="1" stop-color="#2456C6" stop-opacity="0"/>
</linearGradient>
</defs>
</svg>
