<svg width="116" height="29" viewBox="0 0 116 29" fill="none" xmlns="http://www.w3.org/2000/svg">
<path d="M37.4512 4.37762C37.4693 4.74456 37.4127 5.11137 37.2845 5.4557C37.1564 5.80003 36.9596 6.11469 36.706 6.38052C36.4218 6.67528 36.0785 6.90672 35.6987 7.05969C35.3189 7.21266 34.911 7.28372 34.5019 7.26822C34.0901 7.2719 33.6817 7.19324 33.3008 7.03685C32.9198 6.88046 32.574 6.64949 32.2836 6.35753C31.9932 6.06557 31.7641 5.7185 31.6097 5.33672C31.4554 4.95495 31.3789 4.54617 31.3848 4.13442C31.3789 3.72265 31.4554 3.31387 31.6098 2.93209C31.7642 2.55031 31.9933 2.20322 32.2837 1.91123C32.5741 1.61924 32.9199 1.38823 33.3008 1.23176C33.6817 1.0753 34.0901 0.996541 34.5019 1.00012C34.9253 0.998837 35.3444 1.08444 35.7334 1.25162C36.0946 1.39806 36.4162 1.62776 36.6719 1.92202L36.1445 2.44982C35.9435 2.21327 35.6909 2.02605 35.4061 1.90262C35.1213 1.77919 34.8119 1.72284 34.5019 1.73792C34.1898 1.7363 33.8806 1.79769 33.5928 1.9184C33.305 2.03911 33.0445 2.21666 32.827 2.44042C32.6094 2.66418 32.4393 2.92955 32.3267 3.22063C32.2141 3.5117 32.1615 3.8225 32.1719 4.13442C32.1644 4.60161 32.2959 5.0605 32.5496 5.45288C32.8033 5.84526 33.1678 6.15347 33.5969 6.33842C34.026 6.52337 34.5003 6.57673 34.9598 6.49174C35.4193 6.40675 35.8431 6.18723 36.1777 5.86102C36.4856 5.52925 36.664 5.09793 36.6806 4.64562H34.5019V3.92492H37.4092C37.4367 4.07426 37.4507 4.22577 37.4512 4.37762Z" fill="white"/>
<path d="M42.0605 1.87172H39.3281V3.77402H41.792V4.49482H39.3281V6.39712H42.0605V7.13442H38.5576V1.13442H42.0605V1.87172Z" fill="white"/>
<path d="M45.3115 7.13442H44.54V1.87172H42.8642V1.13442H46.9873V1.87172H45.3115V7.13442Z" fill="white"/>
<path d="M49.9707 7.13442V1.13442H50.7412V7.13442H49.9707Z" fill="white"/>
<path d="M54.1611 7.13442H53.3896V1.87172H51.7139V1.13442H55.8369V1.87172H54.1611V7.13442Z" fill="white"/>
<path d="M63.6421 6.35902C63.0581 6.94126 62.267 7.26822 61.4424 7.26822C60.6177 7.26822 59.8267 6.94126 59.2427 6.35902C58.9538 6.06639 58.7266 5.71865 58.5748 5.33649C58.423 4.95432 58.3496 4.54553 58.3589 4.13442C58.3496 3.7233 58.423 3.31451 58.5748 2.93234C58.7266 2.55018 58.9538 2.20244 59.2427 1.90982C59.5313 1.62108 59.8741 1.39211 60.2514 1.23602C60.6286 1.07992 61.033 0.999755 61.4412 1.00012C61.8495 1.00048 62.2537 1.08136 62.6307 1.23813C63.0077 1.39489 63.35 1.62447 63.6382 1.91372C63.9273 2.20557 64.1549 2.55253 64.3073 2.934C64.4598 3.31547 64.5341 3.72368 64.5259 4.13442C64.535 4.5455 64.4614 4.95422 64.3096 5.33635C64.1578 5.71848 63.9308 6.06624 63.6421 6.35902ZM59.812 5.85662C60.2445 6.28841 60.8307 6.53093 61.4419 6.53093C62.0531 6.53093 62.6392 6.28841 63.0718 5.85662C63.2936 5.62953 63.467 5.35984 63.5817 5.06384C63.6963 4.76783 63.7498 4.45166 63.7388 4.13442C63.7498 3.81718 63.6963 3.501 63.5817 3.20499C63.467 2.90899 63.2936 2.6393 63.0718 2.41222C62.6392 1.98042 62.0531 1.73791 61.4419 1.73791C60.8307 1.73791 60.2445 1.98042 59.812 2.41222C59.5905 2.63948 59.4173 2.90922 59.3028 3.2052C59.1884 3.50118 59.135 3.81727 59.146 4.13442C59.135 4.45157 59.1884 4.76765 59.3028 5.06363C59.4173 5.35961 59.5905 5.62935 59.812 5.85662Z" fill="white"/>
<path d="M65.6079 7.13442V1.13442H66.5464L69.4624 5.80192H69.4956L69.4624 4.64562V1.13442H70.2339V7.13442H69.4292L66.3784 2.24082H66.3452L66.3784 3.39712V7.13442H65.6079Z" fill="white"/>
<path d="M37.4512 4.37762C37.4693 4.74456 37.4127 5.11137 37.2845 5.4557C37.1564 5.80003 36.9596 6.11469 36.706 6.38052C36.4218 6.67528 36.0785 6.90672 35.6987 7.05969C35.3189 7.21266 34.911 7.28372 34.5019 7.26822C34.0901 7.2719 33.6817 7.19324 33.3008 7.03685C32.9198 6.88046 32.574 6.64949 32.2836 6.35753C31.9932 6.06557 31.7641 5.7185 31.6097 5.33672C31.4554 4.95495 31.3789 4.54617 31.3848 4.13442C31.3789 3.72265 31.4554 3.31387 31.6098 2.93209C31.7642 2.55031 31.9933 2.20322 32.2837 1.91123C32.5741 1.61924 32.9199 1.38823 33.3008 1.23176C33.6817 1.0753 34.0901 0.996541 34.5019 1.00012C34.9253 0.998837 35.3444 1.08444 35.7334 1.25162C36.0946 1.39806 36.4162 1.62776 36.6719 1.92202L36.1445 2.44982C35.9435 2.21327 35.6909 2.02605 35.4061 1.90262C35.1213 1.77919 34.8119 1.72284 34.5019 1.73792C34.1898 1.7363 33.8806 1.79769 33.5928 1.9184C33.305 2.03911 33.0445 2.21666 32.827 2.44042C32.6094 2.66418 32.4393 2.92955 32.3267 3.22063C32.2141 3.5117 32.1615 3.8225 32.1719 4.13442C32.1644 4.60161 32.2959 5.0605 32.5496 5.45288C32.8033 5.84526 33.1678 6.15347 33.5969 6.33842C34.026 6.52337 34.5003 6.57673 34.9598 6.49174C35.4193 6.40675 35.8431 6.18723 36.1777 5.86102C36.4856 5.52925 36.664 5.09793 36.6806 4.64562H34.5019V3.92492H37.4092C37.4367 4.07426 37.4507 4.22577 37.4512 4.37762Z" stroke="white" stroke-width="0.2" stroke-miterlimit="10"/>
<path d="M42.0605 1.87172H39.3281V3.77402H41.792V4.49482H39.3281V6.39712H42.0605V7.13442H38.5576V1.13442H42.0605V1.87172Z" stroke="white" stroke-width="0.2" stroke-miterlimit="10"/>
<path d="M45.3115 7.13442H44.54V1.87172H42.8642V1.13442H46.9873V1.87172H45.3115V7.13442Z" stroke="white" stroke-width="0.2" stroke-miterlimit="10"/>
<path d="M49.9707 7.13442V1.13442H50.7412V7.13442H49.9707Z" stroke="white" stroke-width="0.2" stroke-miterlimit="10"/>
<path d="M54.1611 7.13442H53.3896V1.87172H51.7139V1.13442H55.8369V1.87172H54.1611V7.13442Z" stroke="white" stroke-width="0.2" stroke-miterlimit="10"/>
<path d="M63.6421 6.35902C63.0581 6.94126 62.267 7.26822 61.4424 7.26822C60.6177 7.26822 59.8267 6.94126 59.2427 6.35902C58.9538 6.06639 58.7266 5.71865 58.5748 5.33649C58.423 4.95432 58.3496 4.54553 58.3589 4.13442C58.3496 3.7233 58.423 3.31451 58.5748 2.93234C58.7266 2.55018 58.9538 2.20244 59.2427 1.90982C59.5313 1.62108 59.8741 1.39211 60.2514 1.23602C60.6286 1.07992 61.033 0.999755 61.4412 1.00012C61.8495 1.00048 62.2537 1.08136 62.6307 1.23813C63.0077 1.39489 63.35 1.62447 63.6382 1.91372C63.9273 2.20557 64.1549 2.55253 64.3073 2.934C64.4598 3.31547 64.5341 3.72368 64.5259 4.13442C64.535 4.5455 64.4614 4.95422 64.3096 5.33635C64.1578 5.71848 63.9308 6.06624 63.6421 6.35902ZM59.812 5.85662C60.2445 6.28841 60.8307 6.53093 61.4419 6.53093C62.0531 6.53093 62.6392 6.28841 63.0718 5.85662C63.2936 5.62953 63.467 5.35984 63.5817 5.06384C63.6963 4.76783 63.7498 4.45166 63.7388 4.13442C63.7498 3.81718 63.6963 3.501 63.5817 3.20499C63.467 2.90899 63.2936 2.6393 63.0718 2.41222C62.6392 1.98042 62.0531 1.73791 61.4419 1.73791C60.8307 1.73791 60.2445 1.98042 59.812 2.41222C59.5905 2.63948 59.4173 2.90922 59.3028 3.2052C59.1884 3.50118 59.135 3.81727 59.146 4.13442C59.135 4.45157 59.1884 4.76765 59.3028 5.06363C59.4173 5.35961 59.5905 5.62935 59.812 5.85662Z" stroke="white" stroke-width="0.2" stroke-miterlimit="10"/>
<path d="M65.6079 7.13442V1.13442H66.5464L69.4624 5.80192H69.4956L69.4624 4.64562V1.13442H70.2339V7.13442H69.4292L66.3784 2.24082H66.3452L66.3784 3.39712V7.13442H65.6079Z" stroke="white" stroke-width="0.2" stroke-miterlimit="10"/>
<path d="M58.1686 15.886C57.3281 15.8892 56.5074 16.1413 55.81 16.6106C55.1127 17.0799 54.5701 17.7453 54.2507 18.5227C53.9312 19.3001 53.8493 20.1548 54.0152 20.9788C54.1812 21.8028 54.5875 22.5591 55.183 23.1523C55.7784 23.7455 56.5363 24.149 57.3609 24.3118C58.1855 24.4746 59.0399 24.3894 59.8161 24.067C60.5923 23.7446 61.2556 23.1994 61.7222 22.5004C62.1889 21.8013 62.4379 20.9796 62.4379 20.1391C62.4461 19.5769 62.3412 19.0188 62.1294 18.498C61.9176 17.9772 61.6031 17.5043 61.2048 17.1075C60.8065 16.7107 60.3324 16.3981 59.8108 16.1882C59.2892 15.9784 58.7307 15.8756 58.1686 15.886ZM58.1686 22.7168C57.651 22.7537 57.1342 22.6339 56.6856 22.373C56.237 22.1121 55.8774 21.7222 55.6535 21.2541C55.4296 20.7859 55.3518 20.2612 55.4303 19.7482C55.5088 19.2353 55.74 18.7578 56.0936 18.378C56.4473 17.9983 56.9071 17.7338 57.4131 17.619C57.9192 17.5042 58.4481 17.5444 58.931 17.7344C59.4139 17.9244 59.8284 18.2554 60.1206 18.6843C60.4127 19.1132 60.569 19.6201 60.569 20.1391C60.5847 20.4669 60.5347 20.7946 60.4218 21.1028C60.309 21.411 60.1356 21.6935 59.9119 21.9337C59.6883 22.1739 59.4188 22.3669 59.1194 22.5014C58.82 22.6359 58.4967 22.7091 58.1686 22.7168ZM48.8552 15.886C48.0147 15.8891 47.1939 16.1413 46.4966 16.6106C45.7993 17.0798 45.2566 17.7452 44.9372 18.5226C44.6177 19.3001 44.5358 20.1547 44.7017 20.9787C44.8676 21.8027 45.274 22.559 45.8694 23.1523C46.4649 23.7455 47.2228 24.149 48.0474 24.3118C48.872 24.4746 49.7263 24.3894 50.5026 24.067C51.2788 23.7446 51.9421 23.1995 52.4087 22.5004C52.8754 21.8013 53.1244 20.9796 53.1244 20.1391C53.1326 19.5769 53.0277 19.0188 52.8159 18.498C52.6041 17.9772 52.2897 17.5044 51.8914 17.1075C51.493 16.7107 51.019 16.3981 50.4974 16.1882C49.9758 15.9784 49.4173 15.8756 48.8552 15.886ZM48.8552 22.7168C48.3376 22.7537 47.8208 22.6339 47.3722 22.373C46.9236 22.1121 46.564 21.7222 46.3401 21.2541C46.1162 20.7859 46.0384 20.2612 46.1169 19.7482C46.1954 19.2353 46.4266 18.7578 46.7802 18.378C47.1339 17.9983 47.5937 17.7338 48.0997 17.619C48.6058 17.5042 49.1347 17.5444 49.6176 17.7344C50.1005 17.9244 50.515 18.2554 50.8072 18.6843C51.0993 19.1132 51.2556 19.6201 51.2556 20.1391C51.2713 20.4669 51.2213 20.7946 51.1084 21.1028C50.9956 21.411 50.8222 21.6935 50.5986 21.9337C50.3749 22.1739 50.1054 22.367 49.806 22.5014C49.5066 22.6359 49.1833 22.7091 48.8552 22.7168ZM37.7764 17.191V18.9953H42.0941C42.0318 19.8416 41.6855 20.642 41.1113 21.2669C40.6786 21.7079 40.1583 22.0533 39.5839 22.2809C39.0094 22.5084 38.3937 22.613 37.7764 22.5879C36.5144 22.5708 35.3098 22.0575 34.4234 21.159C33.537 20.2605 33.04 19.0491 33.04 17.787C33.04 16.5248 33.537 15.3135 34.4234 14.415C35.3098 13.5165 36.5144 13.0032 37.7764 12.9861C38.9886 12.9702 40.1581 13.4334 41.0308 14.2749L42.3035 13.0022C41.708 12.4127 41.0009 11.948 40.2235 11.6354C39.4461 11.3228 38.6142 11.1685 37.7764 11.1817C36.9009 11.1689 36.0316 11.3304 35.219 11.6566C34.4064 11.9828 33.6668 12.4673 33.0432 13.082C32.4196 13.6966 31.9243 14.4291 31.5863 15.2368C31.2483 16.0445 31.0742 16.9114 31.0742 17.787C31.0742 18.6626 31.2483 19.5295 31.5863 20.3372C31.9243 21.1449 32.4196 21.8774 33.0432 22.492C33.6668 23.1066 34.4064 23.5911 35.219 23.9174C36.0316 24.2436 36.9009 24.405 37.7764 24.3923C38.6318 24.4278 39.4851 24.2809 40.2794 23.9615C41.0738 23.6421 41.7912 23.1574 42.384 22.5396C43.4364 21.3908 43.9973 19.8758 43.9468 18.3187C43.9509 17.9405 43.9185 17.5629 43.85 17.191H37.7764ZM83.0847 18.5925C82.8291 17.8221 82.3425 17.1491 81.6911 16.6649C81.0397 16.1807 80.255 15.9087 79.4437 15.886C78.8972 15.8894 78.3571 16.0035 77.856 16.2216C77.3549 16.4396 76.9033 16.757 76.5283 17.1546C76.1534 17.5521 75.8629 18.0215 75.6745 18.5345C75.4861 19.0475 75.4037 19.5934 75.4323 20.1391C75.42 20.6983 75.5205 21.2542 75.7278 21.7737C75.9352 22.2931 76.2451 22.7655 76.6391 23.1625C77.0331 23.5595 77.503 23.873 78.0209 24.0843C78.5388 24.2956 79.0939 24.4003 79.6532 24.3923C80.3538 24.3962 81.0445 24.226 81.6631 23.897C82.2817 23.568 82.8089 23.0905 83.1974 22.5074L81.7475 21.5408C81.5303 21.9015 81.223 22.1996 80.8559 22.4058C80.4887 22.6119 80.0743 22.7191 79.6532 22.7168C79.2199 22.7334 78.7916 22.6193 78.4239 22.3895C78.0562 22.1597 77.766 21.8247 77.591 21.428L83.2781 19.0759L83.0847 18.5925ZM77.285 20.0103C77.2649 19.7007 77.3069 19.3903 77.4083 19.0971C77.5097 18.804 77.6685 18.534 77.8755 18.3029C78.0825 18.0719 78.3335 17.8845 78.6139 17.7516C78.8942 17.6188 79.1982 17.5432 79.5081 17.5293C79.8308 17.5081 80.1526 17.5823 80.4333 17.7427C80.7141 17.9032 80.9414 18.1427 81.087 18.4315L77.285 20.0103ZM72.6612 24.1345H74.53V11.6329H72.6612V24.1345ZM69.6002 16.8365H69.5358C69.2517 16.5278 68.9049 16.2833 68.5187 16.1194C68.1325 15.9555 67.7158 15.8759 67.2964 15.886C66.1997 15.9327 65.1634 16.4012 64.4039 17.1937C63.6444 17.9862 63.2204 19.0414 63.2204 20.1391C63.2204 21.2368 63.6444 22.2921 64.4039 23.0846C65.1634 23.8771 66.1997 24.3456 67.2964 24.3923C67.7175 24.4035 68.1359 24.3228 68.5227 24.1559C68.9094 23.989 69.2551 23.7398 69.5358 23.4257H69.6002V24.0379C69.6002 25.6651 68.7303 26.535 67.3286 26.535C66.8614 26.5238 66.4082 26.3738 66.0266 26.1041C65.6451 25.8344 65.3524 25.4572 65.186 25.0206L63.5588 25.6973C63.8655 26.444 64.3881 27.082 65.0597 27.5298C65.7314 27.9776 66.5214 28.2146 67.3286 28.2105C69.5197 28.2105 71.3724 26.9217 71.3724 23.7801V16.1437H69.6002V16.8365ZM67.4576 22.7168C66.8116 22.662 66.2098 22.3667 65.7712 21.8894C65.3326 21.412 65.0892 20.7874 65.0892 20.1391C65.0892 19.4909 65.3326 18.8663 65.7712 18.3889C66.2098 17.9115 66.8116 17.6163 67.4576 17.5615C67.7789 17.5772 68.0938 17.6574 68.3835 17.7974C68.6732 17.9374 68.9318 18.1343 69.1437 18.3763C69.3557 18.6183 69.5168 18.9006 69.6173 19.2062C69.7179 19.5118 69.7559 19.8346 69.7291 20.1552C69.7542 20.4738 69.7148 20.7942 69.6133 21.0973C69.5117 21.4003 69.35 21.6798 69.138 21.9189C68.9259 22.1581 68.6678 22.352 68.3791 22.4891C68.0903 22.6262 67.7769 22.7036 67.4576 22.7168ZM91.8386 11.6331H87.3674V24.1345H89.2331V19.3981H91.8386C92.3663 19.427 92.8944 19.348 93.3907 19.166C93.8869 18.984 94.3408 18.7027 94.7246 18.3393C95.1084 17.9759 95.4141 17.5381 95.6231 17.0526C95.832 16.5671 95.9398 16.0441 95.9398 15.5156C95.9398 14.987 95.832 14.464 95.6231 13.9785C95.4141 13.493 95.1084 13.0552 94.7246 12.6919C94.3408 12.3285 93.8869 12.0472 93.3907 11.8652C92.8944 11.6831 92.3663 11.6042 91.8386 11.6331ZM91.8868 17.6583H89.2331V13.373H91.8868C92.1719 13.3671 92.4553 13.4181 92.7205 13.5232C92.9856 13.6282 93.2271 13.7851 93.4308 13.9846C93.6345 14.1842 93.7964 14.4224 93.9069 14.6853C94.0174 14.9482 94.0743 15.2305 94.0743 15.5156C94.0743 15.8008 94.0174 16.0831 93.9069 16.346C93.7964 16.6089 93.6345 16.8471 93.4308 17.0467C93.2271 17.2462 92.9856 17.4031 92.7205 17.5081C92.4553 17.6131 92.1719 17.6642 91.8868 17.6583ZM103.418 15.863C102.737 15.8232 102.06 15.9831 101.468 16.3231C100.877 16.6631 100.398 17.1684 100.089 17.7769L101.746 18.4685C101.91 18.1665 102.159 17.9189 102.462 17.756C102.764 17.5932 103.108 17.5222 103.451 17.5517C103.924 17.5055 104.396 17.6488 104.764 17.9503C105.132 18.2518 105.365 18.6868 105.413 19.16V19.2887C104.814 18.9704 104.145 18.8046 103.467 18.8062C101.681 18.8062 99.8641 19.7873 99.8641 21.6208C99.8814 22.0072 99.9762 22.3862 100.143 22.7353C100.309 23.0843 100.544 23.3964 100.834 23.6529C101.123 23.9094 101.462 24.1051 101.828 24.2285C102.195 24.3518 102.582 24.4003 102.968 24.371C103.438 24.3986 103.907 24.2998 104.325 24.0849C104.744 23.8699 105.097 23.5466 105.348 23.1487H105.413V24.1137H107.214V19.3209C107.214 17.1014 105.557 15.863 103.418 15.863ZM103.193 22.7144C102.582 22.7144 101.73 22.4089 101.73 21.6529C101.73 20.688 102.791 20.318 103.708 20.318C104.303 20.3021 104.892 20.4466 105.413 20.7362C105.344 21.2784 105.082 21.7775 104.674 22.1412C104.266 22.5048 103.74 22.7084 103.193 22.7144ZM113.776 16.1364L111.637 21.5564H111.573L109.353 16.1364H107.343L110.672 23.7116L108.774 27.9254H110.72L115.851 16.1364H113.776ZM96.9691 24.1345H98.8347V11.6331H96.9691V24.1345Z" fill="white"/>
<path d="M0.466434 1.40671C0.13852 1.79878 -0.0270535 2.3014 0.00363445 2.81161V24.9277C-0.0271427 25.4379 0.138442 25.9406 0.466434 26.3326L0.540435 26.4047L12.9294 14.0158V13.7235L0.540435 1.33411L0.466434 1.40671Z" fill="url(#paint0_linear_1004_895)"/>
<path d="M17.0588 18.1472L12.9294 14.0158V13.7235L17.0598 9.59314L17.1529 9.64624L22.0457 12.4263C23.4433 13.2203 23.4433 14.5195 22.0457 15.314L17.1529 18.0941L17.0588 18.1472Z" fill="url(#paint1_linear_1004_895)"/>
<path d="M17.1529 18.0937L12.9294 13.8698L0.466431 26.3327C0.7512 26.5838 1.11486 26.7274 1.49439 26.7386C1.87393 26.7499 2.24543 26.628 2.54453 26.394L17.1529 18.0937Z" fill="url(#paint2_linear_1004_895)"/>
<path d="M17.1529 9.64571L2.54453 1.34531C2.24543 1.1114 1.87393 0.989496 1.49439 1.00071C1.11486 1.01192 0.7512 1.15555 0.466431 1.40671L12.9294 13.8697L17.1529 9.64571Z" fill="url(#paint3_linear_1004_895)"/>
<path opacity="0.2" d="M17.0598 18.0006L2.54453 26.2479C2.25695 26.4668 1.90595 26.5863 1.54452 26.5882C1.18309 26.5901 0.830837 26.4745 0.540931 26.2586L0.466431 26.3331L0.540431 26.4052L0.540931 26.4047C0.830788 26.6207 1.18306 26.7364 1.54452 26.7345C1.90598 26.7326 2.257 26.6131 2.54453 26.394L17.1529 18.0936L17.0598 18.0006Z" fill="black"/>
<path opacity="0.12" d="M0.466411 26.187C0.138529 25.7949 -0.0270407 25.2923 0.00361146 24.7821V24.9282C-0.0270591 25.4384 0.138513 25.941 0.466411 26.3331L0.540912 26.2586L0.466411 26.187Z" fill="black"/>
<path opacity="0.12" d="M22.0457 15.1674L17.0598 18.0006L17.1529 18.0936L22.0457 15.3135C22.3335 15.1886 22.5826 14.9888 22.767 14.735C22.9513 14.4811 23.0643 14.1825 23.094 13.8701C23.0322 14.153 22.9052 14.4175 22.7232 14.6427C22.5412 14.8679 22.3093 15.0476 22.0457 15.1674Z" fill="black"/>
<path opacity="0.25" d="M2.54453 1.49187L22.0457 12.5719C22.3094 12.6917 22.5414 12.8714 22.7234 13.0967C22.9054 13.322 23.0323 13.5867 23.094 13.8697C23.0645 13.5572 22.9516 13.2584 22.7673 13.0044C22.5829 12.7505 22.3337 12.5506 22.0457 12.4258L2.54453 1.34577C1.14693 0.551674 0.00363159 1.21127 0.00363159 2.81207V2.95817C0.00363159 1.35747 1.14693 0.697874 2.54453 1.49187Z" fill="white"/>
<defs>
<linearGradient id="paint0_linear_1004_895" x1="11.8308" y1="2.57842" x2="-4.95164" y2="19.3608" gradientUnits="userSpaceOnUse">
<stop stop-color="#00A0FF"/>
<stop offset="0.00657" stop-color="#00A1FF"/>
<stop offset="0.2601" stop-color="#00BEFF"/>
<stop offset="0.5122" stop-color="#00D2FF"/>
<stop offset="0.7604" stop-color="#00DFFF"/>
<stop offset="1" stop-color="#00E3FF"/>
</linearGradient>
<linearGradient id="paint1_linear_1004_895" x1="23.8654" y1="13.8702" x2="-0.331475" y2="13.8702" gradientUnits="userSpaceOnUse">
<stop stop-color="#FFE000"/>
<stop offset="0.4087" stop-color="#FFBD00"/>
<stop offset="0.7754" stop-color="#FFA500"/>
<stop offset="1" stop-color="#FF9C00"/>
</linearGradient>
<linearGradient id="paint2_linear_1004_895" x1="14.858" y1="16.1649" x2="-7.9003" y2="38.9231" gradientUnits="userSpaceOnUse">
<stop stop-color="#FF3A44"/>
<stop offset="1" stop-color="#C31162"/>
</linearGradient>
<linearGradient id="paint3_linear_1004_895" x1="-2.67164" y1="-5.95511" x2="7.49088" y2="4.20741" gradientUnits="userSpaceOnUse">
<stop stop-color="#32A071"/>
<stop offset="0.0685" stop-color="#2DA771"/>
<stop offset="0.4762" stop-color="#15CF74"/>
<stop offset="0.8009" stop-color="#06E775"/>
<stop offset="1" stop-color="#00F076"/>
</linearGradient>
</defs>
</svg>
