<svg width="100" height="26" viewBox="0 0 100 26" fill="none" xmlns="http://www.w3.org/2000/svg">
<path d="M14.7973 11.5804C14.8081 10.7457 15.0298 9.92732 15.4418 9.20136C15.8538 8.47541 16.4428 7.86547 17.1539 7.4283C16.7021 6.78314 16.1062 6.2522 15.4134 5.87765C14.7205 5.50309 13.9499 5.29525 13.1627 5.27062C11.4835 5.09436 9.85552 6.27545 8.99981 6.27545C8.12754 6.27545 6.81004 5.28812 5.39131 5.31731C4.47364 5.34696 3.57929 5.61381 2.79541 6.09187C2.01154 6.56993 1.36486 7.24289 0.918393 8.04518C-1.01561 11.3936 0.426982 16.3146 2.27959 19.0213C3.20649 20.3466 4.28977 21.8271 5.70722 21.7746C7.09428 21.717 7.61232 20.8901 9.28662 20.8901C10.9454 20.8901 11.4314 21.7746 12.8776 21.7412C14.366 21.717 15.3038 20.4099 16.1981 19.072C16.8641 18.1277 17.3766 17.084 17.7166 15.9795C16.8518 15.6138 16.1139 15.0016 15.5948 14.2193C15.0757 13.437 14.7983 12.5192 14.7973 11.5804Z" fill="white"/>
<path d="M12.0657 3.49062C12.8772 2.51641 13.277 1.26423 13.1802 0C11.9404 0.13022 10.7951 0.722779 9.97262 1.65961C9.57048 2.11728 9.26248 2.64971 9.06624 3.22648C8.86999 3.80325 8.78934 4.41304 8.82891 5.021C9.44905 5.02739 10.0626 4.89297 10.6232 4.62788C11.1839 4.3628 11.6771 3.97395 12.0657 3.49062Z" fill="white"/>
<path d="M32.332 18.7027H27.5986L26.4619 22.0591H24.457L28.9404 9.64114H31.0234L35.5068 22.0591H33.4678L32.332 18.7027ZM28.0889 17.1539H31.8409L29.9913 11.7066H29.9395L28.0889 17.1539Z" fill="white"/>
<path d="M45.1895 17.5328C45.1895 20.3463 43.6836 22.1539 41.4111 22.1539C40.8355 22.184 40.263 22.0514 39.7592 21.7712C39.2554 21.4911 38.8407 21.0747 38.5625 20.5699H38.5195V25.0542H36.6611V13.0054H38.46V14.5113H38.4941C38.7851 14.0088 39.2068 13.5946 39.7145 13.3128C40.2221 13.0309 40.7966 12.892 41.377 12.9107C43.6748 12.9107 45.1895 14.7271 45.1895 17.5328ZM43.2793 17.5328C43.2793 15.6998 42.332 14.4947 40.8867 14.4947C39.4668 14.4947 38.5117 15.7252 38.5117 17.5328C38.5117 19.357 39.4668 20.5787 40.8867 20.5787C42.332 20.5787 43.2793 19.3824 43.2793 17.5328Z" fill="white"/>
<path d="M55.1543 17.5328C55.1543 20.3463 53.6484 22.1539 51.376 22.1539C50.8003 22.184 50.2278 22.0514 49.724 21.7712C49.2202 21.4911 48.8055 21.0747 48.5273 20.5699H48.4843V25.0542H46.6259V13.0054H48.4248V14.5113H48.4589C48.7499 14.0088 49.1716 13.5946 49.6793 13.3128C50.1869 13.0309 50.7614 12.892 51.3418 12.9107C53.6396 12.9107 55.1543 14.7271 55.1543 17.5328ZM53.2441 17.5328C53.2441 15.6998 52.2969 14.4947 50.8516 14.4947C49.4316 14.4947 48.4766 15.7252 48.4766 17.5328C48.4766 19.357 49.4316 20.5787 50.8516 20.5787C52.2969 20.5787 53.2441 19.3824 53.2441 17.5328Z" fill="white"/>
<path d="M61.7402 18.5992C61.8779 19.8306 63.0742 20.6392 64.709 20.6392C66.2754 20.6392 67.4023 19.8306 67.4023 18.7202C67.4023 17.7564 66.7227 17.1792 65.1133 16.7837L63.5039 16.396C61.2236 15.8452 60.165 14.7788 60.165 13.0483C60.165 10.9058 62.0322 9.43408 64.6836 9.43408C67.3076 9.43408 69.1064 10.9058 69.167 13.0483H67.291C67.1787 11.8091 66.1543 11.061 64.6572 11.061C63.1601 11.061 62.1357 11.8179 62.1357 12.9194C62.1357 13.7974 62.79 14.314 64.3906 14.7094L65.7588 15.0454C68.3066 15.6479 69.3652 16.6714 69.3652 18.4878C69.3652 20.811 67.5146 22.2661 64.5713 22.2661C61.8173 22.2661 59.958 20.8452 59.8379 18.5991L61.7402 18.5992Z" fill="white"/>
<path d="M73.376 10.8628V13.0054H75.0976V14.4771H73.376V19.4683C73.376 20.2437 73.7207 20.605 74.4775 20.605C74.6819 20.6015 74.886 20.5871 75.0889 20.562V22.0249C74.7486 22.0885 74.4027 22.1173 74.0566 22.1109C72.2236 22.1109 71.5088 21.4224 71.5088 19.6665V14.4771H70.1924V13.0054H71.5088V10.8628H73.376Z" fill="white"/>
<path d="M76.0948 17.5328C76.0948 14.6841 77.7725 12.8941 80.3887 12.8941C83.0137 12.8941 84.6836 14.6841 84.6836 17.5328C84.6836 20.3892 83.0225 22.1714 80.3887 22.1714C77.7559 22.1714 76.0948 20.3892 76.0948 17.5328ZM82.7901 17.5328C82.7901 15.5787 81.8946 14.4254 80.3887 14.4254C78.8828 14.4254 77.9883 15.5875 77.9883 17.5328C77.9883 19.4947 78.8828 20.6392 80.3887 20.6392C81.8946 20.6392 82.7901 19.4947 82.7901 17.5328Z" fill="white"/>
<path d="M86.2158 13.0054H87.9883V14.5464H88.0313C88.1512 14.0651 88.4332 13.6398 88.8297 13.3419C89.2263 13.044 89.7134 12.8918 90.209 12.9107C90.4232 12.9099 90.6367 12.9332 90.8457 12.98V14.7183C90.5754 14.6357 90.2933 14.5978 90.0107 14.606C89.7408 14.595 89.4716 14.6427 89.2218 14.7455C88.9719 14.8484 88.7473 15.0042 88.5633 15.202C88.3793 15.3999 88.2404 15.6353 88.156 15.892C88.0715 16.1486 88.0436 16.4205 88.0742 16.689V22.0591H86.2158L86.2158 13.0054Z" fill="white"/>
<path d="M99.4141 19.4C99.1641 21.0435 97.5635 22.1714 95.5156 22.1714C92.8818 22.1714 91.2471 20.4068 91.2471 17.5757C91.2471 14.7359 92.8906 12.8941 95.4375 12.8941C97.9424 12.8941 99.5176 14.6148 99.5176 17.3599V17.9966H93.1231V18.1089C93.0935 18.4421 93.1353 18.7778 93.2454 19.0936C93.3556 19.4095 93.5317 19.6983 93.7621 19.9408C93.9924 20.1834 94.2718 20.3741 94.5815 20.5004C94.8913 20.6267 95.2243 20.6857 95.5586 20.6734C95.9978 20.7145 96.4385 20.6128 96.8152 20.3834C97.1919 20.1539 97.4845 19.809 97.6494 19.3999L99.4141 19.4ZM93.1318 16.6978H97.6582C97.6749 16.3982 97.6295 16.0984 97.5248 15.8172C97.4201 15.536 97.2584 15.2794 97.0499 15.0637C96.8414 14.8479 96.5905 14.6776 96.313 14.5634C96.0356 14.4491 95.7375 14.3935 95.4375 14.4C95.1349 14.3981 94.8349 14.4563 94.5548 14.571C94.2748 14.6858 94.0202 14.8548 93.8059 15.0685C93.5915 15.2821 93.4216 15.5361 93.3059 15.8157C93.1902 16.0954 93.1311 16.3952 93.1318 16.6978Z" fill="white"/>
<path d="M27.856 0.293999C28.2456 0.26604 28.6365 0.3249 29.0006 0.466333C29.3648 0.607766 29.6929 0.828247 29.9615 1.11187C30.2301 1.3955 30.4324 1.7352 30.5538 2.10647C30.6752 2.47774 30.7127 2.87132 30.6636 3.25884C30.6636 5.16509 29.6333 6.26084 27.856 6.26084H25.7007V0.293999H27.856ZM26.6274 5.417H27.7524C28.0308 5.43364 28.3095 5.38799 28.568 5.28338C28.8265 5.17876 29.0585 5.01782 29.247 4.81225C29.4355 4.60669 29.5758 4.36168 29.6576 4.09506C29.7395 3.82844 29.7609 3.54692 29.7202 3.271C29.7579 2.99617 29.7344 2.71639 29.6512 2.45173C29.5681 2.18707 29.4275 1.94406 29.2394 1.74013C29.0514 1.5362 28.8205 1.37639 28.5634 1.27216C28.3064 1.16792 28.0294 1.12184 27.7524 1.13721H26.6274V5.417Z" fill="white"/>
<path d="M31.7104 4.00734C31.6821 3.71142 31.716 3.41285 31.8098 3.13078C31.9037 2.84871 32.0554 2.58937 32.2554 2.36939C32.4553 2.14941 32.699 1.97364 32.9709 1.85337C33.2427 1.73309 33.5367 1.67096 33.834 1.67096C34.1312 1.67096 34.4252 1.73309 34.6971 1.85337C34.9689 1.97364 35.2126 2.14941 35.4126 2.36939C35.6125 2.58937 35.7643 2.84871 35.8581 3.13078C35.952 3.41285 35.9858 3.71142 35.9575 4.00734C35.9864 4.30356 35.9529 4.60254 35.8593 4.88507C35.7657 5.16759 35.6141 5.42741 35.4141 5.64783C35.2141 5.86824 34.9702 6.04437 34.6981 6.16491C34.4259 6.28544 34.1316 6.34771 33.834 6.34771C33.5364 6.34771 33.242 6.28544 32.9699 6.16491C32.6978 6.04437 32.4539 5.86824 32.2539 5.64783C32.0539 5.42741 31.9022 5.16759 31.8086 4.88507C31.715 4.60254 31.6816 4.30356 31.7104 4.00734ZM35.0434 4.00734C35.0434 3.03127 34.605 2.46047 33.8354 2.46047C33.063 2.46047 32.6284 3.03127 32.6284 4.00735C32.6284 4.99124 33.063 5.55764 33.8354 5.55764C34.605 5.55763 35.0434 4.98732 35.0434 4.00734Z" fill="white"/>
<path d="M41.603 6.26075H40.6812L39.7505 2.94434H39.6802L38.7534 6.26075H37.8403L36.5991 1.75782H37.5005L38.3071 5.19382H38.3735L39.2993 1.75782H40.1519L41.0776 5.19382H41.148L41.9507 1.75782H42.8394L41.603 6.26075Z" fill="white"/>
<path d="M43.8833 1.75782H44.7388V2.47315H44.8052C44.9178 2.21623 45.1078 2.00086 45.3487 1.85705C45.5896 1.71324 45.8693 1.64817 46.1489 1.6709C46.368 1.65443 46.588 1.68746 46.7926 1.76756C46.9972 1.84765 47.1812 1.97276 47.3309 2.1336C47.4805 2.29445 47.5921 2.48691 47.6573 2.69673C47.7225 2.90655 47.7397 3.12835 47.7075 3.3457V6.2607H46.8188V3.56886C46.8188 2.84523 46.5044 2.48536 45.8472 2.48536C45.6984 2.47843 45.5499 2.50375 45.4118 2.55958C45.2738 2.61541 45.1494 2.70043 45.0473 2.80882C44.9452 2.9172 44.8677 3.04639 44.8202 3.18752C44.7727 3.32865 44.7562 3.47839 44.772 3.62647V6.26075H43.8833L43.8833 1.75782Z" fill="white"/>
<path d="M49.1235 0H50.0122V6.26074H49.1235V0Z" fill="white"/>
<path d="M51.2475 4.00734C51.2193 3.7114 51.2531 3.41282 51.347 3.13074C51.4409 2.84866 51.5926 2.58931 51.7926 2.36932C51.9926 2.14933 52.2363 1.97356 52.5082 1.85329C52.78 1.73301 53.074 1.67088 53.3713 1.67088C53.6686 1.67088 53.9626 1.73301 54.2345 1.85329C54.5064 1.97356 54.7501 2.14933 54.9501 2.36932C55.15 2.58931 55.3018 2.84866 55.3957 3.13074C55.4895 3.41282 55.5234 3.7114 55.4951 4.00734C55.5239 4.30357 55.4904 4.60256 55.3968 4.88508C55.3032 5.16761 55.1515 5.42742 54.9515 5.64783C54.7515 5.86823 54.5076 6.04436 54.2354 6.16489C53.9633 6.28542 53.669 6.34768 53.3713 6.34768C53.0737 6.34768 52.7794 6.28542 52.5072 6.16489C52.2351 6.04436 51.9912 5.86823 51.7912 5.64783C51.5912 5.42742 51.4395 5.16761 51.3458 4.88508C51.2522 4.60256 51.2187 4.30357 51.2475 4.00734ZM54.5805 4.00734C54.5805 3.03127 54.1421 2.46047 53.3725 2.46047C52.6001 2.46047 52.1655 3.03127 52.1655 4.00735C52.1655 4.99124 52.6001 5.55764 53.3725 5.55764C54.1421 5.55763 54.5805 4.98732 54.5805 4.00734Z" fill="white"/>
<path d="M56.4307 4.98732C56.4307 4.17677 57.0342 3.70949 58.1055 3.64308L59.3252 3.57277V3.1841C59.3252 2.70851 59.0107 2.43996 58.4033 2.43996C57.9072 2.43996 57.5635 2.62209 57.4648 2.94045H56.6045C56.6953 2.16701 57.4229 1.67092 58.4443 1.67092C59.5732 1.67092 60.21 2.23292 60.21 3.1841V6.26076H59.3545V5.62795H59.2842C59.1415 5.85494 58.9411 6.03999 58.7034 6.1642C58.4658 6.28841 58.1995 6.34733 57.9316 6.33495C57.7426 6.35461 57.5515 6.33444 57.3708 6.27575C57.19 6.21705 57.0236 6.12112 56.8822 5.99415C56.7407 5.86718 56.6275 5.71199 56.5497 5.53857C56.472 5.36516 56.4314 5.17737 56.4307 4.98732ZM59.3252 4.60255V4.22609L58.2256 4.2964C57.6055 4.3379 57.3242 4.54884 57.3242 4.94581C57.3242 5.35108 57.6758 5.58692 58.1592 5.58692C58.3009 5.60126 58.4439 5.58696 58.5799 5.54487C58.7159 5.50278 58.8421 5.43376 58.9509 5.34192C59.0597 5.25007 59.1489 5.13729 59.2132 5.01027C59.2775 4.88325 59.3156 4.74459 59.3252 4.60255Z" fill="white"/>
<path d="M61.3779 4.00734C61.3779 2.58449 62.1094 1.68312 63.2471 1.68312C63.5285 1.67015 63.8078 1.73756 64.0523 1.87745C64.2968 2.01735 64.4965 2.22395 64.6279 2.47312H64.6943V0H65.583V6.26074H64.7314V5.54931H64.6611C64.5195 5.7968 64.3129 6.00083 64.0637 6.13932C63.8144 6.2778 63.532 6.34545 63.2471 6.33495C62.1016 6.335 61.3779 5.43361 61.3779 4.00734ZM62.2959 4.00734C62.2959 4.96242 62.7461 5.53713 63.4991 5.53713C64.2481 5.53713 64.711 4.95413 64.711 4.01125C64.711 3.07277 64.2432 2.48146 63.4991 2.48146C62.751 2.48146 62.2959 3.06007 62.2959 4.00734Z" fill="white"/>
<path d="M69.2598 4.00734C69.2315 3.71142 69.2653 3.41285 69.3591 3.13078C69.453 2.84871 69.6047 2.58937 69.8047 2.36939C70.0046 2.14941 70.2483 1.97364 70.5202 1.85337C70.792 1.73309 71.086 1.67096 71.3833 1.67096C71.6806 1.67096 71.9746 1.73309 72.2464 1.85337C72.5183 1.97364 72.762 2.14941 72.9619 2.36939C73.1618 2.58937 73.3136 2.84871 73.4074 3.13078C73.5013 3.41285 73.5351 3.71142 73.5068 4.00734C73.5357 4.30356 73.5022 4.60254 73.4086 4.88507C73.315 5.16759 73.1634 5.42741 72.9634 5.64783C72.7634 5.86824 72.5195 6.04437 72.2474 6.16491C71.9753 6.28544 71.6809 6.34771 71.3833 6.34771C71.0857 6.34771 70.7913 6.28544 70.5192 6.16491C70.2471 6.04437 70.0032 5.86824 69.8032 5.64783C69.6032 5.42741 69.4515 5.16759 69.358 4.88507C69.2644 4.60254 69.2309 4.30356 69.2598 4.00734ZM72.5928 4.00734C72.5928 3.03127 72.1543 2.46047 71.3848 2.46047C70.6123 2.46047 70.1778 3.03127 70.1778 4.00735C70.1778 4.99124 70.6123 5.55764 71.3848 5.55764C72.1543 5.55763 72.5928 4.98732 72.5928 4.00734Z" fill="white"/>
<path d="M74.6992 1.75782H75.5547V2.47315H75.6211C75.7337 2.21623 75.9237 2.00086 76.1646 1.85705C76.4055 1.71324 76.6852 1.64817 76.9648 1.6709C77.1839 1.65443 77.4039 1.68746 77.6085 1.76756C77.8131 1.84765 77.9971 1.97276 78.1468 2.1336C78.2965 2.29445 78.408 2.48691 78.4732 2.69673C78.5384 2.90655 78.5556 3.12835 78.5234 3.3457V6.2607H77.6348V3.56886C77.6348 2.84523 77.3203 2.48536 76.6631 2.48536C76.5143 2.47843 76.3658 2.50375 76.2278 2.55958C76.0897 2.61541 75.9654 2.70043 75.8632 2.80882C75.7611 2.9172 75.6836 3.04639 75.6361 3.18752C75.5886 3.32865 75.5721 3.47839 75.5879 3.62647V6.26075H74.6992V1.75782Z" fill="white"/>
<path d="M83.5449 0.63673V1.77833H84.5205V2.52687H83.5449V4.8423C83.5449 5.31398 83.7393 5.52052 84.1816 5.52052C84.2949 5.52016 84.408 5.51331 84.5205 5.50001V6.24024C84.3609 6.26879 84.1992 6.28398 84.0371 6.28565C83.0488 6.28565 82.6553 5.93799 82.6553 5.06983V2.52683H81.9404V1.77829H82.6553V0.63673H83.5449Z" fill="white"/>
<path d="M85.7344 0H86.6152V2.48145H86.6855C86.8037 2.22213 86.9989 2.00554 87.2446 1.86119C87.4903 1.71684 87.7745 1.65176 88.0585 1.67481C88.2765 1.66295 88.4944 1.69934 88.6967 1.78138C88.8989 1.86342 89.0806 1.9891 89.2288 2.14943C89.3769 2.30977 89.4878 2.50082 89.5536 2.70896C89.6194 2.91709 89.6384 3.13718 89.6093 3.35352V6.26075H88.7198V3.57275C88.7198 2.85351 88.3848 2.48925 87.7569 2.48925C87.6041 2.47672 87.4505 2.49772 87.3067 2.55077C87.1629 2.60383 87.0325 2.68766 86.9245 2.79639C86.8165 2.90513 86.7336 3.03615 86.6815 3.18029C86.6295 3.32443 86.6095 3.4782 86.6231 3.63085V6.26073H85.7344L85.7344 0Z" fill="white"/>
<path d="M94.791 5.04493C94.6703 5.45647 94.4087 5.81245 94.052 6.0506C93.6953 6.28875 93.2662 6.3939 92.8398 6.34766C92.5432 6.35549 92.2484 6.29867 91.9759 6.18114C91.7034 6.06361 91.4597 5.88819 91.2618 5.66706C91.0639 5.44592 90.9165 5.18436 90.8298 4.90054C90.7431 4.61672 90.7192 4.31743 90.7598 4.02345C90.7203 3.72856 90.7446 3.42863 90.8311 3.14396C90.9175 2.85929 91.0642 2.59652 91.2611 2.37345C91.4579 2.15037 91.7004 1.9722 91.9721 1.85099C92.2438 1.72979 92.5384 1.66837 92.8359 1.67091C94.0889 1.67091 94.8447 2.52691 94.8447 3.94091V4.251H91.665V4.3008C91.6511 4.46605 91.6719 4.63238 91.726 4.78913C91.7801 4.94588 91.8664 5.08958 91.9793 5.21104C92.0922 5.3325 92.2293 5.42902 92.3817 5.49441C92.5341 5.55981 92.6984 5.59264 92.8643 5.5908C93.0768 5.61632 93.2922 5.57804 93.4829 5.48083C93.6737 5.38363 93.8313 5.23188 93.9355 5.0449L94.791 5.04493ZM91.665 3.59376H93.9394C93.9506 3.44263 93.9301 3.29083 93.8791 3.14811C93.8282 3.0054 93.7479 2.87492 93.6435 2.76506C93.5392 2.6552 93.4129 2.5684 93.273 2.51022C93.1331 2.45205 92.9825 2.42379 92.831 2.42726C92.6773 2.42533 92.5248 2.45419 92.3824 2.51213C92.2401 2.57008 92.1107 2.65594 92.0021 2.76465C91.8934 2.87336 91.8076 3.00273 91.7497 3.14512C91.6918 3.28752 91.663 3.44006 91.665 3.59376Z" fill="white"/>
</svg>
