<svg width="180" height="33" viewBox="0 0 180 33" fill="none" xmlns="http://www.w3.org/2000/svg">
<path d="M31.1764 12.1391L29.6993 10.662L27.0897 8.05736L24.3964 5.36407L21.7869 2.75448L19.1822 5.36407L21.7869 7.96872L28.5668 14.7487C28.7968 14.9775 28.9794 15.2495 29.1039 15.549C29.2285 15.8486 29.2926 16.1698 29.2926 16.4942C29.2926 16.8186 29.2285 17.1398 29.1039 17.4393C28.9794 17.7389 28.7968 18.0109 28.5668 18.2396L27.0897 19.7168L24.4851 22.3263L27.0897 24.931L29.6993 22.3263L31.1764 20.8492C32.3313 19.6941 32.9801 18.1276 32.9801 16.4942C32.9801 14.8608 32.3313 13.2942 31.1764 12.1391ZM19.1871 27.6194L18.2467 28.5598C18.0179 28.7898 17.7459 28.9723 17.4464 29.0969C17.1468 29.2214 16.8256 29.2855 16.5012 29.2855C16.1768 29.2855 15.8556 29.2214 15.556 29.0969C15.2565 28.9723 14.9845 28.7898 14.7558 28.5598L4.4159 18.2199C4.1859 17.9912 4.00337 17.7192 3.87883 17.4196C3.75428 17.1201 3.69016 16.7989 3.69016 16.4745C3.69016 16.1501 3.75428 15.8289 3.87883 15.5293C4.00337 15.2298 4.1859 14.9578 4.4159 14.729L14.7558 4.38917C14.9844 4.15981 15.256 3.97782 15.5551 3.85362C15.8542 3.72942 16.1749 3.66545 16.4987 3.66538V0.0119651C15.6904 0.0112777 14.8898 0.170101 14.1429 0.479336C13.396 0.78857 12.7175 1.24214 12.1462 1.81406L1.80631 12.1539C1.23345 12.7248 0.778925 13.4031 0.468783 14.15C0.158641 14.8969 -0.00100708 15.6977 -0.00100708 16.5065C-0.00100708 17.3152 0.158641 18.116 0.468783 18.8629C0.778925 19.6099 1.23345 20.2882 1.80631 20.8591L12.1462 31.1989C13.3011 32.3523 14.8665 33.0001 16.4987 33.0001C18.1309 33.0001 19.6964 32.3523 20.8513 31.1989L21.7918 30.2585L24.4014 27.6489L21.7918 25.0443L19.1871 27.6194Z" fill="url(#paint0_linear_933_95)"/>
<path d="M52.3436 12.1391L42.0038 1.79923C40.8491 0.64736 39.2846 0.000488281 37.6536 0.000488281C36.0226 0.000488281 34.4582 0.64736 33.3035 1.79923L29.7535 5.34925L32.3631 7.95883L34.9727 5.34925L35.9082 4.40881C36.137 4.17881 36.4089 3.99629 36.7085 3.87174C37.008 3.74719 37.3292 3.68307 37.6536 3.68307C37.978 3.68307 38.2993 3.74719 38.5988 3.87174C38.8984 3.99629 39.1703 4.17881 39.3991 4.40881L49.739 14.7487C49.969 14.9774 50.1515 15.2494 50.276 15.549C50.4006 15.8485 50.4647 16.1697 50.4647 16.4941C50.4647 16.8185 50.4006 17.1397 50.276 17.4393C50.1515 17.7388 49.969 18.0108 49.739 18.2396L39.3991 28.5795C39.1705 28.8088 38.8988 28.9908 38.5997 29.115C38.3006 29.2392 37.98 29.3032 37.6561 29.3032V32.9911C38.4641 32.9939 39.2645 32.836 40.0109 32.5266C40.7572 32.2172 41.4347 31.7626 42.0038 31.189L52.3436 20.8492C53.4985 19.6941 54.1473 18.1275 54.1473 16.4941C54.1473 14.8607 53.4985 13.2942 52.3436 12.1391ZM29.6944 22.3312L27.0848 19.7216L25.6077 18.2445C25.3777 18.0157 25.1952 17.7438 25.0706 17.4442C24.9461 17.1447 24.882 16.8235 24.882 16.4991C24.882 16.1746 24.9461 15.8534 25.0706 15.5539C25.1952 15.2543 25.3777 14.9824 25.6077 14.7536L27.0848 13.2765L29.6895 10.6669L27.0799 8.06222L24.4753 10.6669L22.9981 12.144C21.8448 13.2989 21.1969 14.8644 21.1969 16.4966C21.1969 18.1288 21.8448 19.6943 22.9981 20.8492L27.0898 24.9408L29.7732 27.6242L32.3828 30.2338L34.9874 27.6242L29.6944 22.3312Z" fill="url(#paint1_linear_933_95)"/>
<path d="M41.7625 12.139L31.4226 1.79916C30.2671 0.646992 28.7018 0 27.07 0C25.4382 0 23.873 0.646992 22.7175 1.79916L21.777 2.7396L19.1724 5.34918L12.3973 12.1242C11.8244 12.6951 11.3699 13.3735 11.0598 14.1204C10.7496 14.8673 10.59 15.6681 10.59 16.4768C10.59 17.2856 10.7496 18.0864 11.0598 18.8333C11.3699 19.5802 11.8244 20.2585 12.3973 20.8294L19.1724 27.6045L21.777 30.2141L22.7175 31.1545C23.8724 32.3079 25.4378 32.9557 27.07 32.9557C28.7022 32.9557 30.2677 32.3079 31.4226 31.1545L32.3631 30.2141L34.9677 27.6045L41.7477 20.8294C42.8973 19.6764 43.5441 18.1155 43.5469 16.4873C43.5497 14.8591 42.9082 13.2959 41.7625 12.139ZM39.1677 18.2395L32.3926 25.0146L29.783 27.6192L28.8278 28.5597C28.5991 28.7889 28.3275 28.9708 28.0284 29.095C27.7293 29.2191 27.4086 29.2829 27.0848 29.2829C26.761 29.2829 26.4404 29.2191 26.1413 29.095C25.8422 28.9708 25.5705 28.7889 25.3418 28.5597L15.002 18.2198C14.772 17.9911 14.5894 17.7191 14.4649 17.4195C14.3403 17.12 14.2762 16.7988 14.2762 16.4744C14.2762 16.15 14.3403 15.8288 14.4649 15.5292C14.5894 15.2297 14.772 14.9577 15.002 14.7289L21.777 7.94892L24.3866 5.34426L25.327 4.40382C25.5557 4.17456 25.8274 3.99266 26.1265 3.86855C26.4256 3.74444 26.7462 3.68056 27.07 3.68056C27.3939 3.68056 27.7145 3.74444 28.0136 3.86855C28.3127 3.99266 28.5844 4.17456 28.813 4.40382L29.7535 5.34426L32.3631 7.95383L39.1677 14.7486C39.3977 14.9774 39.5802 15.2493 39.7047 15.5489C39.8293 15.8484 39.8934 16.1697 39.8934 16.4941C39.8934 16.8185 39.8293 17.1397 39.7047 17.4392C39.5802 17.7388 39.3977 18.0108 39.1677 18.2395Z" fill="url(#paint2_linear_933_95)"/>
<path d="M21.7918 2.75448L19.1871 5.36406L18.2467 4.42363C18.018 4.19427 17.7464 4.01228 17.4473 3.88808C17.1482 3.76388 16.8275 3.69991 16.5037 3.69984V0.0119629C17.3127 0.0136956 18.1134 0.175563 18.8596 0.488236C19.6058 0.80091 20.2827 1.2582 20.8513 1.83374L21.7918 2.75448Z" fill="url(#paint3_linear_933_95)"/>
<path d="M37.6905 29.2834V32.9712C36.8819 32.9736 36.0809 32.8155 35.3337 32.5061C34.5866 32.1968 33.9083 31.7424 33.338 31.1692L32.3975 30.2287L35.0022 27.6191L35.9426 28.5596C36.1718 28.7895 36.4443 28.9719 36.7443 29.0961C37.0443 29.2203 37.3659 29.2839 37.6905 29.2834Z" fill="url(#paint4_linear_933_95)"/>
<path d="M21.7918 2.75448L19.1871 5.36406L18.2467 4.42363C18.018 4.19427 17.7464 4.01228 17.4473 3.88808C17.1482 3.76388 16.8275 3.69991 16.5037 3.69984V0.0119629C17.3127 0.0136956 18.1134 0.175563 18.8596 0.488236C19.6058 0.80091 20.2827 1.2582 20.8513 1.83374L21.7918 2.75448Z" fill="url(#paint5_linear_933_95)"/>
<path d="M27.0898 13.2617L25.6126 14.7388C25.382 14.9665 25.1991 15.2379 25.0748 15.5372C24.9505 15.8366 24.8873 16.1577 24.8889 16.4818H21.201C21.1987 15.6732 21.3568 14.8721 21.6661 14.125C21.9754 13.3779 22.4298 12.6996 23.0031 12.1292L24.4802 10.6521L27.0898 13.2617Z" fill="url(#paint6_linear_933_95)"/>
<path d="M27.0848 19.7216L28.5619 18.2445C28.7918 18.0153 28.9742 17.7428 29.0984 17.4428C29.2226 17.1429 29.2863 16.8213 29.2857 16.4966H32.9687C32.9714 17.3056 32.8141 18.1071 32.5056 18.855C32.1972 19.6029 31.7438 20.2823 31.1715 20.8541L29.6944 22.3312L27.0848 19.7216Z" fill="url(#paint7_linear_933_95)"/>
<path d="M37.6905 29.2834V32.9712C36.8819 32.9736 36.0809 32.8155 35.3337 32.5061C34.5866 32.1968 33.9083 31.7424 33.338 31.1692L32.3975 30.2287L35.0022 27.6191L35.9426 28.5596C36.1718 28.7895 36.4443 28.9719 36.7443 29.0961C37.0443 29.2203 37.3659 29.2839 37.6905 29.2834Z" fill="url(#paint8_linear_933_95)"/>
<path d="M73.0986 23.0071C71.9315 23.0071 70.8968 22.8612 69.9943 22.5694C69.1073 22.2623 68.3604 21.817 67.7536 21.2334C67.1467 20.6499 66.6877 19.9205 66.3765 19.0452C66.0808 18.1546 65.933 17.1257 65.933 15.9587V8.12712C65.933 7.52823 66.0886 7.07523 66.3998 6.76811C66.711 6.46099 67.1623 6.30743 67.7536 6.30743C68.3293 6.30743 68.7728 6.46099 69.084 6.76811C69.3952 7.07523 69.5508 7.52823 69.5508 8.12712V15.9817C69.5508 17.3023 69.8542 18.3005 70.4611 18.9761C71.0679 19.6364 71.9471 19.9666 73.0986 19.9666C74.25 19.9666 75.1214 19.6364 75.7127 18.9761C76.3196 18.3005 76.623 17.3023 76.623 15.9817V8.12712C76.623 7.52823 76.7786 7.07523 77.0898 6.76811C77.401 6.46099 77.8445 6.30743 78.4202 6.30743C78.996 6.30743 79.4317 6.46099 79.7273 6.76811C80.0385 7.07523 80.1941 7.52823 80.1941 8.12712V15.9587C80.1941 17.5096 79.9218 18.8149 79.3772 19.8744C78.8481 20.9186 78.0546 21.7018 76.9964 22.2239C75.9539 22.746 74.6546 23.0071 73.0986 23.0071Z" fill="#161639"/>
<path d="M84.8661 22.961C84.2903 22.961 83.8469 22.8074 83.5357 22.5003C83.24 22.1932 83.0922 21.7555 83.0922 21.1874V13.0103C83.0922 12.4421 83.24 12.0122 83.5357 11.7204C83.8469 11.4133 84.2748 11.2597 84.8194 11.2597C85.3796 11.2597 85.8075 11.4133 86.1031 11.7204C86.3988 12.0122 86.5466 12.4421 86.5466 13.0103V14.3233L86.2899 13.5631C86.6477 12.8107 87.1768 12.2348 87.877 11.8356C88.5928 11.421 89.4019 11.2137 90.3044 11.2137C91.2225 11.2137 91.9772 11.3903 92.5685 11.7435C93.1598 12.0813 93.6033 12.6034 93.8989 13.3098C94.1946 14.0008 94.3424 14.8837 94.3424 15.9587V21.1874C94.3424 21.7555 94.1868 22.1932 93.8756 22.5003C93.5799 22.8074 93.1442 22.961 92.5685 22.961C92.0083 22.961 91.5726 22.8074 91.2614 22.5003C90.9658 22.1932 90.8179 21.7555 90.8179 21.1874V16.1199C90.8179 15.3368 90.6701 14.7763 90.3745 14.4384C90.0944 14.0852 89.6587 13.9086 89.0674 13.9086C88.3205 13.9086 87.7214 14.139 87.2702 14.5997C86.8345 15.0603 86.6166 15.6746 86.6166 16.4424V21.1874C86.6166 22.3698 86.0331 22.961 84.8661 22.961Z" fill="#161639"/>
<path d="M98.7941 22.961C98.2183 22.961 97.7748 22.8074 97.4636 22.5003C97.168 22.1932 97.0202 21.7555 97.0202 21.1874V13.0103C97.0202 12.4421 97.168 12.0122 97.4636 11.7204C97.7748 11.4133 98.2028 11.2597 98.7474 11.2597C99.3076 11.2597 99.7355 11.4133 100.031 11.7204C100.327 12.0122 100.475 12.4421 100.475 13.0103V14.4845L100.218 13.5631C100.529 12.8568 101.011 12.2886 101.665 11.8586C102.318 11.4287 103.089 11.2137 103.976 11.2137C104.863 11.2137 105.602 11.421 106.193 11.8356C106.784 12.2502 107.204 12.8875 107.453 13.7474H107.127C107.469 12.9643 107.99 12.35 108.69 11.9047C109.406 11.444 110.223 11.2137 111.141 11.2137C112.028 11.2137 112.752 11.3903 113.312 11.7435C113.888 12.0813 114.316 12.6034 114.596 13.3098C114.876 14.0008 115.016 14.8837 115.016 15.9587V21.1874C115.016 21.7555 114.86 22.1932 114.549 22.5003C114.253 22.8074 113.825 22.961 113.265 22.961C112.69 22.961 112.246 22.8074 111.935 22.5003C111.639 22.1932 111.491 21.7555 111.491 21.1874V16.0738C111.491 15.3214 111.367 14.7763 111.118 14.4384C110.885 14.0852 110.48 13.9086 109.904 13.9086C109.235 13.9086 108.714 14.139 108.34 14.5997C107.967 15.0603 107.78 15.713 107.78 16.5576V21.1874C107.78 21.7555 107.625 22.1932 107.313 22.5003C107.018 22.8074 106.59 22.961 106.03 22.961C105.469 22.961 105.034 22.8074 104.723 22.5003C104.411 22.1932 104.256 21.7555 104.256 21.1874V16.0738C104.256 15.3214 104.131 14.7763 103.882 14.4384C103.649 14.0852 103.244 13.9086 102.669 13.9086C102 13.9086 101.478 14.139 101.105 14.5997C100.731 15.0603 100.545 15.713 100.545 16.5576V21.1874C100.545 22.3698 99.9611 22.961 98.7941 22.961Z" fill="#161639"/>
<path d="M123.668 23.0071C122.314 23.0071 121.147 22.769 120.166 22.293C119.202 21.8016 118.455 21.1183 117.926 20.243C117.412 19.3523 117.155 18.3081 117.155 17.1104C117.155 15.9433 117.404 14.9221 117.902 14.0468C118.4 13.1562 119.093 12.4652 119.98 11.9738C120.882 11.467 121.901 11.2137 123.037 11.2137C123.862 11.2137 124.609 11.3519 125.278 11.6283C125.947 11.8893 126.523 12.2732 127.005 12.78C127.488 13.2714 127.853 13.8779 128.102 14.5997C128.351 15.306 128.476 16.0969 128.476 16.9722C128.476 17.2639 128.382 17.4866 128.196 17.6401C128.009 17.7784 127.737 17.8475 127.379 17.8475H120.05V16.0508H125.932L125.558 16.3733C125.558 15.7437 125.465 15.2216 125.278 14.807C125.091 14.377 124.819 14.0545 124.461 13.8395C124.119 13.6246 123.691 13.5171 123.177 13.5171C122.602 13.5171 122.111 13.6476 121.707 13.9086C121.302 14.1697 120.991 14.5459 120.773 15.0373C120.555 15.5287 120.447 16.1199 120.447 16.8109V16.9952C120.447 18.1623 120.719 19.0222 121.263 19.575C121.824 20.1278 122.648 20.4042 123.738 20.4042C124.111 20.4042 124.539 20.3582 125.021 20.266C125.504 20.1739 125.955 20.028 126.375 19.8284C126.733 19.6595 127.052 19.6057 127.332 19.6671C127.612 19.7132 127.83 19.8361 127.986 20.0357C128.141 20.2353 128.227 20.4656 128.242 20.7267C128.273 20.9878 128.219 21.2488 128.079 21.5099C127.939 21.7556 127.705 21.9629 127.379 22.1318C126.85 22.4235 126.251 22.6385 125.581 22.7767C124.928 22.9303 124.29 23.0071 123.668 23.0071Z" fill="#161639"/>
<path d="M134.914 23.0071C134.229 23.0071 133.521 22.9456 132.79 22.8228C132.074 22.6999 131.42 22.4926 130.829 22.2009C130.518 22.0473 130.292 21.8554 130.152 21.625C130.028 21.3793 129.973 21.1336 129.989 20.8879C130.004 20.6422 130.082 20.4196 130.222 20.22C130.378 20.0203 130.572 19.8898 130.806 19.8284C131.055 19.7516 131.327 19.7746 131.623 19.8975C132.261 20.1585 132.844 20.3428 133.373 20.4503C133.902 20.5578 134.424 20.6115 134.937 20.6115C135.606 20.6115 136.089 20.5117 136.384 20.3121C136.695 20.0971 136.851 19.8207 136.851 19.4829C136.851 19.1757 136.75 18.9454 136.548 18.7918C136.345 18.6383 136.05 18.5308 135.661 18.4694L133.21 18.0317C132.245 17.8628 131.498 17.5173 130.969 16.9952C130.456 16.4577 130.199 15.7744 130.199 14.9452C130.199 14.1774 130.417 13.5171 130.852 12.9643C131.288 12.3961 131.887 11.9661 132.65 11.6743C133.428 11.3672 134.307 11.2137 135.287 11.2137C135.987 11.2137 136.633 11.2751 137.224 11.3979C137.816 11.5208 138.384 11.7204 138.928 11.9968C139.208 12.135 139.403 12.3193 139.512 12.5496C139.636 12.78 139.675 13.018 139.629 13.2637C139.597 13.5094 139.504 13.7321 139.348 13.9317C139.193 14.1313 138.991 14.2618 138.742 14.3233C138.508 14.3847 138.236 14.354 137.925 14.2311C137.427 14.0008 136.968 13.8395 136.548 13.7474C136.127 13.6399 135.723 13.5862 135.334 13.5862C134.634 13.5862 134.128 13.7013 133.817 13.9317C133.505 14.1467 133.35 14.4231 133.35 14.7609C133.35 15.022 133.435 15.2446 133.607 15.4289C133.793 15.5978 134.073 15.713 134.447 15.7744L136.898 16.212C137.909 16.381 138.679 16.7188 139.208 17.2255C139.737 17.7169 140.002 18.3926 140.002 19.2525C140.002 20.4196 139.535 21.3409 138.602 22.0166C137.683 22.6769 136.454 23.0071 134.914 23.0071Z" fill="#161639"/>
<path d="M146.402 23.0071C145.717 23.0071 145.009 22.9456 144.278 22.8228C143.562 22.6999 142.908 22.4926 142.317 22.2009C142.006 22.0473 141.78 21.8554 141.64 21.625C141.516 21.3793 141.461 21.1336 141.477 20.8879C141.492 20.6422 141.57 20.4196 141.71 20.22C141.866 20.0203 142.06 19.8898 142.294 19.8284C142.543 19.7516 142.815 19.7746 143.111 19.8975C143.749 20.1585 144.332 20.3428 144.861 20.4503C145.39 20.5578 145.912 20.6115 146.425 20.6115C147.094 20.6115 147.576 20.5117 147.872 20.3121C148.183 20.0971 148.339 19.8207 148.339 19.4829C148.339 19.1757 148.238 18.9454 148.036 18.7918C147.833 18.6383 147.538 18.5308 147.149 18.4694L144.698 18.0317C143.733 17.8628 142.986 17.5173 142.457 16.9952C141.944 16.4577 141.687 15.7744 141.687 14.9452C141.687 14.1774 141.905 13.5171 142.34 12.9643C142.776 12.3961 143.375 11.9661 144.138 11.6743C144.916 11.3672 145.795 11.2137 146.775 11.2137C147.475 11.2137 148.121 11.2751 148.712 11.3979C149.304 11.5208 149.872 11.7204 150.416 11.9968C150.696 12.135 150.891 12.3193 151 12.5496C151.124 12.78 151.163 13.018 151.116 13.2637C151.085 13.5094 150.992 13.7321 150.836 13.9317C150.681 14.1313 150.479 14.2618 150.23 14.3233C149.996 14.3847 149.724 14.354 149.413 14.2311C148.915 14.0008 148.456 13.8395 148.036 13.7474C147.615 13.6399 147.211 13.5862 146.822 13.5862C146.122 13.5862 145.616 13.7013 145.305 13.9317C144.993 14.1467 144.838 14.4231 144.838 14.7609C144.838 15.022 144.923 15.2446 145.095 15.4289C145.281 15.5978 145.561 15.713 145.935 15.7744L148.386 16.212C149.397 16.381 150.167 16.7188 150.696 17.2255C151.225 17.7169 151.49 18.3926 151.49 19.2525C151.49 20.4196 151.023 21.3409 150.089 22.0166C149.171 22.6769 147.942 23.0071 146.402 23.0071Z" fill="#161639"/>
<path d="M155.275 22.938C154.7 22.938 154.256 22.7767 153.945 22.4542C153.649 22.1164 153.502 21.6481 153.502 21.0492V13.1716C153.502 12.5573 153.649 12.089 153.945 11.7665C154.256 11.4287 154.7 11.2597 155.275 11.2597C155.836 11.2597 156.264 11.4287 156.559 11.7665C156.87 12.089 157.026 12.5573 157.026 13.1716V21.0492C157.026 21.6481 156.878 22.1164 156.583 22.4542C156.287 22.7767 155.851 22.938 155.275 22.938ZM155.275 9.37095C154.622 9.37095 154.116 9.22507 153.758 8.93331C153.416 8.62619 153.245 8.19622 153.245 7.6434C153.245 7.07523 153.416 6.64527 153.758 6.3535C154.116 6.04638 154.622 5.89282 155.275 5.89282C155.929 5.89282 156.427 6.04638 156.769 6.3535C157.112 6.64527 157.283 7.07523 157.283 7.6434C157.283 8.19622 157.112 8.62619 156.769 8.93331C156.427 9.22507 155.929 9.37095 155.275 9.37095Z" fill="#161639"/>
<path d="M162.408 22.961C161.832 22.961 161.389 22.8074 161.077 22.5003C160.782 22.1932 160.634 21.7555 160.634 21.1874V14.0468H159.794C159.358 14.0468 159.016 13.9317 158.767 13.7013C158.533 13.471 158.417 13.1562 158.417 12.7569C158.417 12.327 158.533 12.0045 158.767 11.7895C159.016 11.5592 159.358 11.444 159.794 11.444H161.661L160.634 12.3654V11.6513C160.634 10.0082 161.046 8.77975 161.871 7.96588C162.711 7.15201 163.941 6.66062 165.559 6.49171L166.306 6.4226C166.71 6.39189 167.029 6.45332 167.263 6.60688C167.512 6.76044 167.675 6.96006 167.753 7.20576C167.831 7.45146 167.846 7.70483 167.8 7.96588C167.753 8.21158 167.644 8.43424 167.473 8.63387C167.317 8.81814 167.099 8.91795 166.819 8.93331L166.492 8.95634C165.652 9.01777 165.053 9.21739 164.695 9.55522C164.337 9.8777 164.158 10.3768 164.158 11.0524V11.8356L163.715 11.444H165.816C166.267 11.444 166.609 11.5592 166.843 11.7895C167.076 12.0045 167.193 12.327 167.193 12.7569C167.193 13.1562 167.076 13.471 166.843 13.7013C166.609 13.9317 166.267 14.0468 165.816 14.0468H164.158V21.1874C164.158 22.3698 163.575 22.961 162.408 22.961Z" fill="#161639"/>
<path d="M171.513 27.1071C171.109 27.1071 170.774 26.9996 170.51 26.7846C170.245 26.5696 170.09 26.2856 170.043 25.9324C169.996 25.5945 170.059 25.2337 170.23 24.8498L171.794 21.4408V22.8689L167.662 13.5171C167.507 13.1178 167.452 12.7493 167.499 12.4114C167.561 12.0582 167.732 11.7818 168.012 11.5822C168.308 11.3672 168.713 11.2597 169.226 11.2597C169.646 11.2597 169.981 11.3596 170.23 11.5592C170.494 11.7435 170.735 12.1043 170.953 12.6418L173.707 19.552H172.961L175.808 12.6187C176.026 12.0966 176.267 11.7435 176.532 11.5592C176.812 11.3596 177.185 11.2597 177.652 11.2597C178.057 11.2597 178.376 11.3672 178.609 11.5822C178.858 11.7818 179.006 12.0506 179.052 12.3884C179.115 12.7262 179.052 13.0948 178.866 13.494L173.381 25.7711C173.147 26.2932 172.883 26.6464 172.587 26.8307C172.307 27.015 171.949 27.1071 171.513 27.1071Z" fill="#161639"/>
<defs>
<linearGradient id="paint0_linear_933_95" x1="16.4988" y1="0.115364" x2="16.4988" y2="31.6962" gradientUnits="userSpaceOnUse">
<stop stop-color="#00D2FF"/>
<stop offset="1" stop-color="#4F7EF7"/>
</linearGradient>
<linearGradient id="paint1_linear_933_95" x1="37.6709" y1="0.115311" x2="37.6709" y2="31.6962" gradientUnits="userSpaceOnUse">
<stop stop-color="#00D2FF"/>
<stop offset="1" stop-color="#4F7EF7"/>
</linearGradient>
<linearGradient id="paint2_linear_933_95" x1="27.0848" y1="0.115248" x2="27.0848" y2="31.6961" gradientUnits="userSpaceOnUse">
<stop stop-color="#00D2FF"/>
<stop offset="1" stop-color="#4F7EF7"/>
</linearGradient>
<linearGradient id="paint3_linear_933_95" x1="19.1477" y1="0.115361" x2="19.1477" y2="31.6962" gradientUnits="userSpaceOnUse">
<stop stop-color="#00D2FF"/>
<stop offset="1" stop-color="#4F7EF7"/>
</linearGradient>
<linearGradient id="paint4_linear_933_95" x1="35.0268" y1="0.115148" x2="35.0268" y2="31.696" gradientUnits="userSpaceOnUse">
<stop stop-color="#00D2FF"/>
<stop offset="1" stop-color="#4F7EF7"/>
</linearGradient>
<linearGradient id="paint5_linear_933_95" x1="21.9198" y1="3.86725" x2="16.9173" y2="2.2178" gradientUnits="userSpaceOnUse">
<stop stop-color="#4F7EF7" stop-opacity="0.7"/>
<stop offset="1" stop-color="#4F7EF7" stop-opacity="0"/>
</linearGradient>
<linearGradient id="paint6_linear_933_95" x1="27.3557" y1="10.3222" x2="24.17" y2="14.0347" gradientUnits="userSpaceOnUse">
<stop stop-color="#4F7EF7"/>
<stop offset="1" stop-color="#4F7EF7" stop-opacity="0"/>
</linearGradient>
<linearGradient id="paint7_linear_933_95" x1="26.814" y1="22.6611" x2="30.0046" y2="18.9535" gradientUnits="userSpaceOnUse">
<stop stop-color="#4F7EF7"/>
<stop offset="1" stop-color="#4F7EF7" stop-opacity="0"/>
</linearGradient>
<linearGradient id="paint8_linear_933_95" x1="32.7816" y1="30.0958" x2="37.2917" y2="30.3567" gradientUnits="userSpaceOnUse">
<stop stop-color="#2456C6"/>
<stop offset="1" stop-color="#2456C6" stop-opacity="0"/>
</linearGradient>
</defs>
</svg>
