<svg width="44" height="44" viewBox="0 0 44 44" fill="none" xmlns="http://www.w3.org/2000/svg">
<path fill-rule="evenodd" clip-rule="evenodd" d="M36 31.5C33.5147 31.5 31.5 33.5147 31.5 36C31.5 38.4853 33.5147 40.5 36 40.5C38.4853 40.5 40.5 38.4853 40.5 36C40.5 33.5147 38.4853 31.5 36 31.5ZM28.5 36C28.5 31.8579 31.8579 28.5 36 28.5C40.1421 28.5 43.5 31.8579 43.5 36C43.5 40.1421 40.1421 43.5 36 43.5C31.8579 43.5 28.5 40.1421 28.5 36Z" fill="#4F7EF7"/>
<g opacity="0.4">
<path fill-rule="evenodd" clip-rule="evenodd" d="M19.5 7C19.5 6.17157 20.1716 5.5 21 5.5H32C35.0284 5.5 37.5 7.97157 37.5 11V30C37.5 30.8284 36.8284 31.5 36 31.5C35.1716 31.5 34.5 30.8284 34.5 30V11C34.5 9.62843 33.3716 8.5 32 8.5H21C20.1716 8.5 19.5 7.82843 19.5 7Z" fill="#4F7EF7"/>
<path fill-rule="evenodd" clip-rule="evenodd" d="M27.1523 1.03973C27.6827 1.67615 27.5967 2.62199 26.9603 3.15234L22.3431 7.00001L26.9603 10.8477C27.5967 11.378 27.6827 12.3239 27.1523 12.9603C26.622 13.5967 25.6761 13.6827 25.0397 13.1523L19.0397 8.15234C18.6977 7.86735 18.5 7.44518 18.5 7.00001C18.5 6.55484 18.6977 6.13267 19.0397 5.84768L25.0397 0.847675C25.6761 0.317329 26.622 0.403315 27.1523 1.03973Z" fill="#4F7EF7"/>
<path fill-rule="evenodd" clip-rule="evenodd" d="M8 12.5C8.82843 12.5 9.5 13.1716 9.5 14V33C9.5 34.3716 10.6284 35.5 12 35.5H23C23.8284 35.5 24.5 36.1716 24.5 37C24.5 37.8284 23.8284 38.5 23 38.5H12C8.97157 38.5 6.5 36.0284 6.5 33V14C6.5 13.1716 7.17157 12.5 8 12.5Z" fill="#4F7EF7"/>
<path fill-rule="evenodd" clip-rule="evenodd" d="M16.8477 31.0397C17.378 30.4033 18.3239 30.3173 18.9603 30.8477L24.9603 35.8477C25.3023 36.1327 25.5 36.5548 25.5 37C25.5 37.4452 25.3023 37.8673 24.9603 38.1523L18.9603 43.1523C18.3239 43.6827 17.378 43.5967 16.8477 42.9603C16.3173 42.3239 16.4033 41.378 17.0397 40.8477L21.6569 37L17.0397 33.1523C16.4033 32.622 16.3173 31.6761 16.8477 31.0397Z" fill="#4F7EF7"/>
</g>
<path fill-rule="evenodd" clip-rule="evenodd" d="M8 3.5C5.51472 3.5 3.5 5.51472 3.5 8C3.5 10.4853 5.51472 12.5 8 12.5C10.4853 12.5 12.5 10.4853 12.5 8C12.5 5.51472 10.4853 3.5 8 3.5ZM0.5 8C0.5 3.85786 3.85786 0.5 8 0.5C12.1421 0.5 15.5 3.85786 15.5 8C15.5 12.1421 12.1421 15.5 8 15.5C3.85786 15.5 0.5 12.1421 0.5 8Z" fill="#4F7EF7"/>
</svg>
