<svg width="41" height="44" viewBox="0 0 41 44" fill="none" xmlns="http://www.w3.org/2000/svg">
<path fill-rule="evenodd" clip-rule="evenodd" d="M19 3.5C14.3056 3.5 10.5 7.30558 10.5 12C10.5 16.6944 14.3056 20.5 19 20.5C23.6944 20.5 27.5 16.6944 27.5 12C27.5 7.30558 23.6944 3.5 19 3.5ZM7.5 12C7.5 5.64873 12.6487 0.5 19 0.5C25.3513 0.5 30.5 5.64873 30.5 12C30.5 18.3513 25.3513 23.5 19 23.5C12.6487 23.5 7.5 18.3513 7.5 12Z" fill="#4F7EF7"/>
<path opacity="0.4" fill-rule="evenodd" clip-rule="evenodd" d="M19 29.5C10.0457 29.5 3.32001 35.3617 3.32001 42C3.32001 42.8284 2.64843 43.5 1.82001 43.5C0.99158 43.5 0.320007 42.8284 0.320007 42C0.320007 33.1583 8.99425 26.5 19 26.5C21.055 26.5 23.0492 26.7782 24.9189 27.294C25.7175 27.5143 26.1863 28.3403 25.966 29.1389C25.7457 29.9375 24.9197 30.4063 24.1211 30.186C22.5109 29.7418 20.785 29.5 19 29.5Z" fill="#4F7EF7"/>
<path fill-rule="evenodd" clip-rule="evenodd" d="M31 27.5C29.4769 27.5 28.0631 28.0337 26.935 28.933L26.9324 28.935L26.9324 28.935C25.442 30.1176 24.5 31.9491 24.5 34C24.5 35.2188 24.841 36.3666 25.4367 37.3327L25.4493 37.3531L25.4491 37.3532C26.5688 39.2354 28.6282 40.5 31 40.5C32.6454 40.5 34.129 39.8999 35.2566 38.8851C35.2695 38.8734 35.2827 38.8619 35.2961 38.8507C35.782 38.4432 36.2103 37.9368 36.5444 37.3642L36.5633 37.3327C37.159 36.3666 37.5 35.2188 37.5 34C37.5 30.4084 34.5916 27.5 31 27.5ZM25.0663 26.586C26.698 25.2859 28.7637 24.5 31 24.5C36.2484 24.5 40.5 28.7516 40.5 34C40.5 35.7748 40.0047 37.4611 39.1264 38.8917C38.6262 39.745 37.985 40.5069 37.2441 41.1323C35.5741 42.6269 33.3854 43.5 31 43.5C27.5361 43.5 24.5187 41.6492 22.8769 38.8971C21.9966 37.4653 21.5 35.777 21.5 34C21.5 31.0115 22.8774 28.3235 25.0663 26.586Z" fill="#4F7EF7"/>
<path fill-rule="evenodd" clip-rule="evenodd" d="M35.2212 31.0216C35.7837 31.6298 35.7467 32.5788 35.1385 33.1413L30.8785 37.0812C30.287 37.6282 29.369 37.6103 28.7993 37.0406L26.8193 35.0607C26.2336 34.4749 26.2336 33.5251 26.8193 32.9393C27.4051 32.3536 28.3549 32.3536 28.9407 32.9393L29.9006 33.8993L33.1015 30.9388C33.7097 30.3763 34.6587 30.4134 35.2212 31.0216Z" fill="#4F7EF7"/>
</svg>
